<svg id="svg" version="1.1" xmlns="http://www.w3.org/2000/svg" xmlns:xlink="http://www.w3.org/1999/xlink" width="400" height="400" viewBox="0, 0, 400,400"><g id="svgg"><path id="path0" d="M69.200 44.600 C 68.659 45.251,68.789 45.333,69.767 44.957 C 70.115 44.824,70.400 44.554,70.400 44.357 C 70.400 43.804,69.752 43.935,69.200 44.600 M329.600 44.357 C 329.600 44.554,329.885 44.824,330.233 44.957 C 331.211 45.333,331.341 45.251,330.800 44.600 C 330.248 43.935,329.600 43.804,329.600 44.357 M264.200 62.254 C 263.100 62.340,258.447 62.681,253.859 63.013 C 246.077 63.575,245.353 63.695,243.059 64.798 C 241.707 65.448,239.382 66.152,237.892 66.361 C 235.958 66.633,234.840 67.031,233.980 67.756 C 232.898 68.666,230.564 69.592,229.338 69.598 C 229.084 69.599,228.129 70.224,227.217 70.986 C 226.305 71.748,224.927 72.490,224.156 72.635 C 223.317 72.792,222.502 73.283,222.125 73.858 C 221.779 74.387,220.622 75.237,219.553 75.748 C 218.485 76.260,217.255 77.131,216.819 77.685 C 216.384 78.239,215.481 78.918,214.814 79.194 C 214.146 79.471,213.600 79.914,213.600 80.179 C 213.600 80.761,211.919 82.400,211.323 82.400 C 211.089 82.400,210.670 82.948,210.392 83.619 C 210.115 84.289,209.385 85.097,208.772 85.414 C 208.159 85.732,207.532 86.398,207.380 86.896 C 207.227 87.393,206.315 88.766,205.351 89.946 C 204.388 91.126,203.600 92.351,203.600 92.669 C 203.600 92.986,203.076 93.730,202.435 94.323 C 201.793 94.916,201.067 96.166,200.818 97.105 C 200.570 98.043,199.866 99.393,199.254 100.105 C 198.557 100.917,197.952 102.295,197.632 103.800 C 197.352 105.120,196.616 107.010,195.998 108.000 C 195.128 109.392,194.767 110.660,194.404 113.600 C 194.115 115.935,193.548 118.248,192.933 119.600 C 191.461 122.834,191.232 127.894,191.215 157.526 C 191.206 173.512,191.052 183.530,190.808 183.984 C 189.986 185.521,188.650 185.600,163.393 185.600 L 138.905 185.600 138.657 187.100 C 138.215 189.775,138.362 241.981,138.814 242.826 C 139.216 243.578,139.914 243.600,163.595 243.600 C 180.930 243.600,188.250 243.731,188.959 244.054 C 191.331 245.135,191.200 240.486,191.200 323.808 L 191.200 400.000 223.000 400.000 L 254.800 400.000 254.800 397.643 C 254.800 395.527,254.708 395.264,253.892 395.059 C 253.392 394.933,252.402 394.262,251.692 393.568 L 250.400 392.305 250.400 319.937 C 250.400 247.667,250.401 247.566,251.224 245.954 C 252.668 243.122,251.897 243.200,278.338 243.200 C 296.712 243.200,301.989 243.090,302.297 242.700 C 302.515 242.425,302.815 240.955,302.964 239.434 C 303.114 237.913,303.569 235.663,303.976 234.434 C 305.068 231.137,305.156 230.478,305.584 222.400 C 306.004 214.471,306.439 211.406,307.421 209.439 C 307.999 208.282,309.335 192.671,309.236 188.242 C 309.173 185.416,311.130 185.600,281.177 185.600 C 253.527 185.600,252.759 185.559,251.216 184.016 C 250.005 182.805,249.941 143.802,251.143 139.599 C 251.552 138.169,252.012 135.740,252.166 134.200 C 252.530 130.565,253.002 129.125,254.200 128.000 C 254.737 127.495,255.367 126.507,255.599 125.803 C 255.831 125.100,256.447 124.296,256.966 124.018 C 257.486 123.740,258.108 123.082,258.347 122.556 C 258.591 122.021,259.490 121.318,260.391 120.957 C 261.276 120.603,262.000 120.157,262.000 119.966 C 262.000 119.262,263.961 118.367,266.446 117.937 C 267.851 117.693,269.900 117.023,271.000 116.447 L 273.000 115.400 292.071 115.276 C 307.115 115.177,311.234 115.041,311.574 114.631 C 311.876 114.268,311.975 106.512,311.903 88.955 L 311.800 63.800 309.600 63.515 C 308.390 63.358,300.380 63.039,291.800 62.807 C 283.220 62.574,273.950 62.320,271.200 62.241 C 268.450 62.163,265.300 62.169,264.200 62.254 M44.473 69.287 C 43.913 69.847,43.855 70.400,44.357 70.400 C 44.724 70.400,45.327 69.194,45.083 68.949 C 45.008 68.875,44.734 69.026,44.473 69.287 M354.806 69.014 C 354.817 69.703,355.548 70.585,355.854 70.279 C 356.018 70.115,355.848 69.677,355.476 69.305 C 355.104 68.933,354.803 68.802,354.806 69.014 M355.043 330.233 C 354.667 331.211,354.749 331.341,355.400 330.800 C 356.065 330.248,356.196 329.600,355.643 329.600 C 355.446 329.600,355.176 329.885,355.043 330.233 M69.305 355.476 C 69.677 355.848,70.115 356.018,70.279 355.854 C 70.443 355.691,70.312 355.389,69.988 355.184 C 69.015 354.569,68.582 354.753,69.305 355.476 " stroke="none" fill="#f9f9fa" fill-rule="evenodd"></path><path id="path1" d="M255.630 59.248 C 253.996 59.437,251.979 59.947,251.147 60.381 C 250.172 60.889,248.113 61.324,245.357 61.604 C 241.154 62.032,238.831 62.687,237.615 63.786 C 237.277 64.092,235.753 64.559,234.228 64.825 C 232.336 65.154,231.169 65.595,230.549 66.214 C 230.050 66.714,228.687 67.425,227.521 67.796 C 226.354 68.166,224.950 68.960,224.400 69.559 C 223.850 70.159,222.664 70.862,221.765 71.121 C 220.865 71.381,219.479 72.225,218.685 72.997 C 217.890 73.768,216.966 74.400,216.632 74.400 C 216.297 74.400,215.614 74.958,215.112 75.639 C 214.610 76.320,213.697 77.139,213.083 77.458 C 212.468 77.777,211.766 78.476,211.522 79.012 C 211.278 79.547,210.739 80.092,210.324 80.224 C 209.909 80.356,209.133 81.155,208.600 82.000 C 208.067 82.845,207.283 83.647,206.858 83.782 C 206.433 83.916,205.859 84.575,205.582 85.244 C 205.304 85.914,204.645 86.746,204.116 87.092 C 203.587 87.439,202.784 88.460,202.333 89.361 C 201.881 90.262,201.097 91.450,200.591 92.000 C 200.084 92.550,199.464 93.774,199.214 94.721 C 198.963 95.667,198.491 96.544,198.164 96.669 C 197.374 96.972,196.518 98.689,195.996 101.020 C 195.761 102.065,195.126 103.447,194.585 104.091 C 193.506 105.373,193.406 105.691,192.780 109.799 C 192.516 111.526,192.061 112.909,191.592 113.409 C 190.562 114.505,190.112 117.027,189.598 124.600 C 189.359 128.120,188.961 131.720,188.713 132.600 C 188.410 133.676,188.212 142.159,188.109 158.519 L 187.955 182.837 186.951 183.219 C 186.356 183.445,176.302 183.600,162.218 183.600 C 139.453 183.600,138.450 183.631,137.544 184.364 L 136.600 185.129 136.480 213.225 C 136.354 242.681,136.444 244.544,138.085 246.290 L 138.939 247.200 162.625 247.200 C 184.591 247.200,186.374 247.251,187.167 247.900 L 188.023 248.600 187.912 324.300 C 187.808 394.413,187.849 400.000,188.460 400.000 C 188.953 400.000,189.168 399.520,189.313 398.100 C 189.727 394.046,189.608 248.761,189.190 247.982 C 188.026 245.806,188.139 245.816,162.400 245.600 L 138.600 245.400 137.901 244.000 C 136.822 241.841,136.822 186.543,137.900 185.247 C 138.596 184.411,138.754 184.405,162.800 184.303 C 183.463 184.215,187.175 184.112,188.200 183.595 L 189.400 182.990 189.635 155.995 C 189.896 125.942,190.189 120.924,191.997 115.614 C 192.636 113.736,193.347 111.138,193.577 109.839 C 193.807 108.541,194.429 106.738,194.959 105.834 C 195.489 104.930,196.219 103.170,196.581 101.923 C 196.944 100.677,197.597 99.203,198.033 98.649 C 198.469 98.094,199.261 96.658,199.792 95.457 C 200.323 94.256,200.950 93.155,201.184 93.010 C 201.419 92.864,201.956 92.070,202.377 91.245 C 205.247 85.620,217.032 74.255,222.752 71.598 C 223.715 71.150,225.034 70.338,225.682 69.792 C 226.331 69.246,227.109 68.800,227.412 68.800 C 227.714 68.800,229.287 68.102,230.907 67.249 C 232.527 66.396,234.798 65.495,235.955 65.247 C 237.112 64.999,239.010 64.346,240.173 63.796 C 241.554 63.142,243.813 62.594,246.685 62.215 C 249.104 61.896,252.414 61.348,254.041 60.997 C 261.051 59.485,281.418 59.476,295.400 60.979 C 298.480 61.310,303.346 61.740,306.212 61.935 C 312.260 62.346,313.759 62.893,314.147 64.833 C 314.286 65.530,314.400 76.949,314.400 90.209 L 314.400 114.317 312.986 115.559 L 311.572 116.800 297.461 116.800 C 283.213 116.800,279.987 117.018,270.459 118.621 C 266.035 119.366,265.077 119.696,263.514 121.011 C 262.867 121.555,262.085 122.000,261.775 122.000 C 260.839 122.000,257.370 125.751,256.181 128.048 C 255.568 129.231,254.744 130.830,254.350 131.600 C 253.126 133.995,252.800 140.422,252.800 162.196 L 252.800 183.108 253.786 183.754 C 254.669 184.333,257.638 184.401,282.286 184.406 C 303.592 184.410,310.026 184.525,310.800 184.915 C 312.211 185.625,312.267 187.672,311.044 193.684 C 310.494 196.388,309.844 201.480,309.600 205.000 C 309.356 208.520,308.722 213.560,308.191 216.200 C 307.660 218.840,307.035 223.070,306.803 225.600 C 306.570 228.130,306.212 232.002,306.006 234.205 C 305.427 240.409,304.892 242.388,303.387 243.893 L 302.080 245.200 278.340 245.203 L 254.600 245.205 253.696 246.534 L 252.791 247.862 252.896 319.831 C 252.994 387.513,253.042 391.883,253.702 393.200 C 254.380 394.553,254.394 394.560,254.126 393.400 C 253.616 391.186,253.532 249.131,254.040 247.903 L 254.497 246.800 278.370 246.800 L 302.244 246.800 303.653 245.500 C 306.463 242.909,306.467 242.890,307.202 230.081 C 307.475 225.328,307.790 222.792,308.210 221.981 C 309.184 220.097,309.589 217.189,310.183 207.800 C 310.581 201.505,310.919 198.647,311.369 197.761 C 312.921 194.703,313.643 186.236,312.475 184.793 L 311.671 183.800 283.167 183.692 C 263.129 183.616,254.505 183.453,254.131 183.143 C 252.576 181.852,253.663 133.991,255.292 132.056 C 255.822 131.426,256.577 129.890,256.969 128.644 C 257.503 126.945,257.964 126.232,258.812 125.794 C 259.434 125.472,260.060 124.842,260.202 124.395 C 260.360 123.894,261.433 123.140,262.985 122.436 C 264.373 121.806,265.687 120.973,265.905 120.585 C 266.564 119.407,275.320 118.778,294.400 118.537 C 310.600 118.333,311.463 118.284,312.735 117.507 C 315.868 115.593,315.618 118.146,315.503 89.265 L 315.400 63.486 314.317 62.678 C 313.474 62.048,312.099 61.760,308.117 61.376 C 305.303 61.105,301.920 60.589,300.600 60.229 C 296.046 58.985,263.938 58.285,255.630 59.248 " stroke="none" fill="#808fbd" fill-rule="evenodd"></path><path id="path2" d="M261.400 60.004 C 259.200 60.157,255.967 60.588,254.215 60.962 C 252.463 61.336,249.063 61.902,246.659 62.219 C 243.810 62.594,241.551 63.144,240.173 63.796 C 239.010 64.346,237.112 64.999,235.955 65.247 C 234.798 65.495,232.527 66.396,230.907 67.249 C 229.287 68.102,227.714 68.800,227.412 68.800 C 227.109 68.800,226.331 69.246,225.682 69.792 C 225.034 70.338,223.715 71.150,222.752 71.598 C 217.032 74.255,205.247 85.620,202.377 91.245 C 201.956 92.070,201.419 92.864,201.184 93.010 C 200.950 93.155,200.323 94.256,199.792 95.457 C 199.261 96.658,198.469 98.094,198.033 98.649 C 197.597 99.203,196.944 100.677,196.581 101.923 C 196.219 103.170,195.489 104.930,194.959 105.834 C 194.429 106.738,193.807 108.541,193.577 109.839 C 193.347 111.138,192.636 113.736,191.997 115.614 C 190.189 120.924,189.896 125.942,189.635 155.995 L 189.400 182.990 188.200 183.595 C 187.175 184.112,183.463 184.215,162.800 184.303 C 138.754 184.405,138.596 184.411,137.900 185.247 C 136.822 186.543,136.822 241.841,137.901 244.000 L 138.600 245.400 162.400 245.600 C 188.165 245.817,188.025 245.804,189.199 247.998 C 189.493 248.547,189.588 271.856,189.511 324.394 C 189.450 365.977,189.535 400.000,189.700 400.000 C 190.397 400.000,190.047 247.845,189.348 246.847 C 187.922 244.811,187.782 244.800,162.423 244.800 L 138.821 244.800 138.210 243.620 C 137.379 242.013,137.292 187.633,138.118 186.000 L 138.623 185.000 163.230 184.800 C 185.505 184.619,187.934 184.536,188.873 183.920 L 189.911 183.240 190.122 156.320 C 190.348 127.524,190.628 122.178,192.148 117.519 C 192.680 115.891,193.424 113.037,193.802 111.179 C 194.180 109.321,194.905 107.080,195.413 106.200 C 195.921 105.320,196.630 103.578,196.989 102.328 C 197.347 101.079,197.997 99.603,198.433 99.049 C 198.869 98.494,199.677 97.087,200.229 95.920 C 201.689 92.835,204.891 88.179,207.800 84.913 C 209.230 83.307,210.431 82.099,215.653 77.015 C 216.452 76.237,217.290 75.600,217.514 75.600 C 217.737 75.600,218.998 74.790,220.315 73.800 C 221.632 72.810,222.871 72.000,223.068 72.000 C 223.266 72.000,224.401 71.372,225.592 70.605 C 226.783 69.838,228.397 69.009,229.179 68.762 C 229.960 68.516,231.230 67.891,232.000 67.373 C 232.770 66.856,234.570 66.146,236.000 65.795 C 237.430 65.444,239.604 64.721,240.831 64.187 C 243.099 63.201,252.695 61.635,262.182 60.703 C 268.035 60.129,291.430 61.090,309.400 62.644 C 313.805 63.024,313.400 60.331,313.400 89.274 L 313.400 114.513 312.272 115.357 C 311.176 116.176,310.630 116.207,293.472 116.439 C 279.015 116.635,275.350 116.797,273.328 117.328 C 271.968 117.685,269.553 118.249,267.960 118.581 C 266.367 118.914,264.420 119.620,263.632 120.151 C 262.844 120.682,261.724 121.360,261.143 121.658 C 259.757 122.368,256.763 125.741,255.557 127.952 C 255.030 128.916,254.351 130.161,254.047 130.718 C 252.621 133.328,252.317 138.089,252.122 160.885 L 251.931 183.170 253.266 183.983 C 254.573 184.780,255.156 184.797,281.640 184.799 C 300.238 184.800,309.074 184.937,309.940 185.239 C 311.444 185.763,311.587 187.159,310.612 191.800 C 310.289 193.340,309.833 196.850,309.600 199.600 C 308.900 207.862,308.377 212.019,307.582 215.635 C 307.167 217.524,306.549 222.474,306.209 226.635 C 305.449 235.926,304.278 241.984,302.968 243.397 L 302.038 244.400 278.473 244.400 C 251.888 244.400,253.346 244.226,252.391 247.521 C 252.091 248.555,251.998 270.496,252.081 320.400 L 252.200 391.800 253.133 393.300 C 254.361 395.276,254.415 395.199,253.552 392.700 C 252.862 390.703,252.825 387.098,252.813 319.225 L 252.800 247.850 253.700 246.527 L 254.600 245.205 278.340 245.203 L 302.080 245.200 303.387 243.893 C 304.892 242.388,305.427 240.409,306.006 234.205 C 306.212 232.002,306.570 228.130,306.803 225.600 C 307.035 223.070,307.660 218.840,308.191 216.200 C 308.722 213.560,309.356 208.520,309.600 205.000 C 309.844 201.480,310.494 196.388,311.044 193.684 C 312.267 187.672,312.211 185.625,310.800 184.915 C 310.026 184.525,303.592 184.410,282.286 184.406 C 257.638 184.401,254.669 184.333,253.786 183.754 L 252.800 183.108 252.800 162.196 C 252.800 140.422,253.126 133.995,254.350 131.600 C 254.744 130.830,255.568 129.231,256.181 128.048 C 257.370 125.751,260.839 122.000,261.775 122.000 C 262.085 122.000,262.867 121.555,263.514 121.011 C 265.077 119.696,266.035 119.366,270.459 118.621 C 279.987 117.018,283.213 116.800,297.461 116.800 L 311.572 116.800 312.986 115.559 L 314.400 114.317 314.400 90.209 C 314.400 76.949,314.286 65.530,314.147 64.833 C 313.762 62.909,312.251 62.346,306.414 61.951 C 303.656 61.764,298.700 61.327,295.400 60.979 C 292.100 60.631,284.810 60.187,279.200 59.992 C 267.966 59.601,267.187 59.601,261.400 60.004 " stroke="none" fill="#94a4cc" fill-rule="evenodd"></path><path id="path3" d="M162.400 0.800 C 162.400 1.568,162.133 1.600,155.814 1.600 C 148.683 1.600,148.400 1.691,148.400 3.974 C 148.400 4.764,148.186 4.800,143.426 4.800 C 137.579 4.800,136.607 5.067,136.266 6.769 C 136.025 7.975,133.762 8.466,130.476 8.024 C 129.212 7.854,127.270 8.865,127.031 9.818 C 126.818 10.666,126.554 10.801,125.092 10.804 C 121.293 10.814,120.400 11.166,120.400 12.652 L 120.400 14.000 117.680 14.000 C 114.672 14.000,114.000 14.380,114.000 16.080 L 114.000 17.200 111.000 17.200 C 108.642 17.200,108.000 17.324,108.000 17.782 C 108.000 19.090,106.080 20.354,103.903 20.479 L 101.800 20.600 101.676 22.100 L 101.552 23.600 98.594 23.600 L 95.636 23.600 95.382 24.958 C 95.131 26.294,95.085 26.321,92.463 26.658 C 89.912 26.986,89.784 27.055,89.417 28.300 C 89.135 29.259,88.803 29.600,88.150 29.600 C 86.499 29.600,86.000 30.028,86.000 31.443 C 86.000 32.760,85.952 32.800,84.400 32.800 C 83.520 32.800,82.800 32.963,82.800 33.163 C 82.800 33.362,82.439 33.431,81.998 33.315 C 80.944 33.040,80.000 33.859,80.000 35.049 C 80.000 36.009,79.657 36.160,77.672 36.072 C 76.893 36.038,76.761 36.206,76.857 37.116 C 77.019 38.666,76.544 39.200,75.001 39.200 C 73.727 39.200,73.641 39.287,73.524 40.700 C 73.409 42.094,73.301 42.209,72.000 42.331 C 70.445 42.477,68.000 44.121,68.000 45.020 C 68.000 45.339,67.865 45.562,67.700 45.515 C 66.462 45.167,64.766 46.070,64.541 47.197 C 64.362 48.088,64.020 48.471,63.249 48.639 C 61.330 49.056,61.200 49.167,61.200 50.387 C 61.200 51.449,61.060 51.600,60.080 51.600 C 58.665 51.600,58.000 52.258,58.000 53.656 C 58.000 54.633,57.838 54.765,56.500 54.876 C 55.081 54.993,54.993 55.081,54.876 56.500 C 54.759 57.908,54.670 58.000,53.419 58.000 C 52.016 58.000,51.600 58.505,51.600 60.207 C 51.600 60.976,51.363 61.172,50.313 61.275 C 49.198 61.383,48.980 61.595,48.683 62.856 C 48.407 64.035,48.117 64.357,47.162 64.548 C 46.070 64.766,45.173 66.483,45.515 67.700 C 45.562 67.865,45.339 68.000,45.020 68.000 C 44.100 68.000,42.400 70.539,42.400 71.914 C 42.400 73.341,42.176 73.543,40.455 73.675 C 39.327 73.760,39.200 73.901,39.200 75.061 C 39.200 76.546,38.652 77.018,37.116 76.857 C 36.206 76.761,36.038 76.893,36.072 77.672 C 36.160 79.657,36.009 80.000,35.049 80.000 C 33.684 80.000,33.234 80.756,32.943 83.541 C 32.686 85.996,32.684 86.000,31.386 86.000 C 30.031 86.000,29.600 86.519,29.600 88.150 C 29.600 88.803,29.259 89.135,28.300 89.417 C 27.055 89.784,26.986 89.912,26.658 92.463 C 26.319 95.098,26.300 95.130,24.929 95.387 C 23.671 95.623,23.549 95.765,23.612 96.923 C 23.841 101.154,23.718 101.542,22.100 101.676 L 20.600 101.800 20.483 104.900 L 20.366 108.000 18.783 108.000 L 17.200 108.000 17.200 111.000 L 17.200 114.000 16.049 114.000 C 14.539 114.000,13.920 114.813,14.007 116.680 C 14.173 120.248,14.118 120.400,12.652 120.400 C 11.167 120.400,10.814 121.294,10.804 125.078 C 10.801 126.505,10.638 126.834,9.717 127.278 C 8.388 127.918,8.091 128.916,8.040 132.910 L 8.000 136.020 6.769 136.266 C 5.067 136.607,4.800 137.579,4.800 143.426 C 4.800 148.186,4.764 148.400,3.974 148.400 C 1.691 148.400,1.600 148.683,1.600 155.814 C 1.600 162.133,1.568 162.400,0.800 162.400 C 0.006 162.400,0.000 162.667,0.000 198.972 L 0.000 235.544 0.900 235.718 L 1.800 235.891 0.900 235.946 C -0.286 236.017,-0.381 237.600,0.800 237.600 C 1.568 237.600,1.600 237.867,1.600 244.186 C 1.600 251.317,1.691 251.600,3.974 251.600 C 4.763 251.600,4.800 251.817,4.806 256.500 C 4.812 261.871,5.192 263.221,6.803 263.599 C 7.758 263.824,7.809 263.992,8.024 267.633 C 8.272 271.820,8.433 272.280,9.839 272.815 C 10.680 273.134,10.800 273.435,10.800 275.214 C 10.800 276.332,10.944 277.158,11.121 277.049 C 11.297 276.940,11.432 277.424,11.421 278.125 C 11.402 279.276,11.526 279.412,12.700 279.525 L 14.000 279.651 14.000 282.345 C 14.000 285.327,14.383 286.000,16.080 286.000 L 17.200 286.000 17.200 289.025 C 17.200 291.667,17.289 292.041,17.900 291.979 C 20.316 291.733,20.358 291.784,20.483 295.100 L 20.600 298.200 22.000 298.219 L 23.400 298.239 23.516 301.278 L 23.632 304.317 24.980 304.570 C 26.257 304.809,26.343 304.933,26.610 306.911 C 26.969 309.569,27.337 310.247,28.589 310.562 C 29.359 310.755,29.601 311.075,29.606 311.908 C 29.615 313.514,30.136 314.090,31.443 313.936 C 32.580 313.802,32.599 313.834,32.915 316.381 C 33.278 319.303,33.689 320.000,35.049 320.000 C 35.892 320.000,36.000 320.182,36.000 321.600 L 36.000 323.200 37.600 323.200 C 39.196 323.200,39.200 323.204,39.200 324.776 C 39.200 326.308,39.242 326.355,40.700 326.476 C 42.119 326.593,42.207 326.681,42.324 328.100 C 42.409 329.125,42.642 329.600,43.060 329.600 C 43.748 329.600,45.166 331.134,45.187 331.900 C 45.194 332.175,45.470 332.400,45.800 332.400 C 46.130 332.400,46.400 332.591,46.400 332.824 C 46.400 333.057,46.220 333.136,46.000 333.000 C 45.780 332.864,45.600 332.955,45.600 333.203 C 45.600 334.157,46.433 335.133,47.592 335.537 C 48.474 335.845,48.800 336.212,48.800 336.899 C 48.800 338.091,49.501 338.800,50.680 338.800 C 51.415 338.800,51.601 339.021,51.606 339.900 C 51.614 341.257,52.106 342.087,52.843 341.983 C 54.411 341.764,54.753 342.019,54.876 343.500 C 54.993 344.919,55.081 345.007,56.500 345.124 C 57.838 345.235,58.000 345.367,58.000 346.344 C 58.000 347.742,58.665 348.400,60.080 348.400 C 61.060 348.400,61.200 348.551,61.200 349.613 C 61.200 350.833,61.330 350.944,63.249 351.361 C 64.020 351.529,64.362 351.912,64.541 352.803 C 64.766 353.930,66.462 354.833,67.700 354.485 C 67.865 354.438,68.000 354.661,68.000 354.980 C 68.000 355.879,70.445 357.523,72.000 357.669 C 73.301 357.791,73.409 357.906,73.524 359.300 C 73.645 360.754,73.696 360.800,75.200 360.800 C 76.704 360.800,76.755 360.846,76.876 362.300 C 76.993 363.718,77.082 363.807,78.498 363.924 C 79.722 364.025,80.044 364.235,80.253 365.067 C 80.552 366.259,82.465 367.200,84.587 367.200 C 85.927 367.200,86.000 367.270,86.000 368.557 C 86.000 370.014,86.491 370.400,88.345 370.400 C 89.177 370.400,89.528 370.675,89.878 371.600 C 90.306 372.734,90.830 372.977,92.700 372.907 C 92.975 372.897,93.200 373.049,93.200 373.244 C 93.200 373.440,93.638 373.600,94.173 373.600 C 95.071 373.600,95.716 374.482,95.780 375.800 C 95.791 376.020,97.095 376.253,98.677 376.317 L 101.554 376.434 101.677 377.917 C 101.812 379.544,101.650 379.480,105.876 379.561 L 107.952 379.600 108.076 381.100 L 108.200 382.600 111.100 382.718 C 113.970 382.834,114.000 382.846,114.000 383.938 C 114.000 385.616,114.680 386.000,117.655 386.000 L 120.349 386.000 120.475 387.264 C 120.612 388.647,120.651 388.664,124.532 389.072 C 126.465 389.275,126.923 389.471,127.207 390.220 C 127.718 391.561,128.213 391.730,132.367 391.976 C 136.008 392.191,136.176 392.242,136.401 393.197 C 136.779 394.808,138.129 395.188,143.500 395.194 C 148.183 395.200,148.400 395.237,148.400 396.026 C 148.400 398.342,148.599 398.400,156.614 398.400 C 163.733 398.400,164.000 398.429,164.000 399.200 C 164.000 399.982,164.267 400.000,175.744 400.000 L 187.489 400.000 187.741 397.900 C 187.880 396.745,187.995 362.645,187.997 322.123 L 188.000 248.445 187.111 247.823 C 186.331 247.276,183.331 247.200,162.581 247.200 L 138.939 247.200 138.085 246.290 C 136.444 244.544,136.354 242.681,136.480 213.225 L 136.600 185.129 137.544 184.364 C 138.450 183.631,139.453 183.600,162.218 183.600 C 176.302 183.600,186.356 183.445,186.951 183.219 L 187.955 182.837 188.109 158.519 C 188.212 142.159,188.410 133.676,188.713 132.600 C 188.961 131.720,189.359 128.120,189.598 124.600 C 190.112 117.027,190.562 114.505,191.592 113.409 C 192.061 112.909,192.516 111.526,192.780 109.799 C 193.406 105.691,193.506 105.373,194.585 104.091 C 195.126 103.447,195.761 102.065,195.996 101.020 C 196.518 98.689,197.374 96.972,198.164 96.669 C 198.491 96.544,198.963 95.667,199.214 94.721 C 199.464 93.774,200.084 92.550,200.591 92.000 C 201.097 91.450,201.881 90.262,202.333 89.361 C 202.784 88.460,203.587 87.439,204.116 87.092 C 204.645 86.746,205.304 85.914,205.582 85.244 C 205.859 84.575,206.433 83.916,206.858 83.782 C 207.283 83.647,208.067 82.845,208.600 82.000 C 209.133 81.155,209.909 80.356,210.324 80.224 C 210.739 80.092,211.278 79.547,211.522 79.012 C 211.766 78.476,212.468 77.777,213.083 77.458 C 213.697 77.139,214.610 76.320,215.112 75.639 C 215.614 74.958,216.297 74.400,216.632 74.400 C 216.966 74.400,217.890 73.768,218.685 72.997 C 219.479 72.225,220.865 71.381,221.765 71.121 C 222.664 70.862,223.850 70.159,224.400 69.559 C 224.950 68.960,226.354 68.166,227.521 67.796 C 228.687 67.425,230.050 66.714,230.549 66.214 C 231.169 65.595,232.336 65.154,234.228 64.825 C 235.753 64.559,237.277 64.092,237.615 63.786 C 238.831 62.687,241.154 62.032,245.357 61.604 C 248.063 61.329,250.179 60.886,251.117 60.399 C 255.144 58.305,293.078 58.175,300.600 60.229 C 301.920 60.589,305.303 61.105,308.117 61.376 C 312.099 61.760,313.474 62.048,314.317 62.678 L 315.400 63.486 315.503 89.265 C 315.618 118.146,315.868 115.593,312.735 117.507 C 311.463 118.284,310.600 118.333,294.400 118.537 C 275.320 118.778,266.564 119.407,265.905 120.585 C 265.687 120.973,264.373 121.806,262.985 122.436 C 261.433 123.140,260.360 123.894,260.202 124.395 C 260.060 124.842,259.434 125.472,258.812 125.794 C 257.964 126.232,257.503 126.945,256.969 128.644 C 256.577 129.890,255.822 131.426,255.292 132.056 C 253.663 133.991,252.576 181.852,254.131 183.143 C 254.505 183.453,263.129 183.616,283.167 183.692 L 311.671 183.800 312.475 184.793 C 313.643 186.236,312.921 194.703,311.369 197.761 C 310.919 198.647,310.581 201.505,310.183 207.800 C 309.589 217.189,309.184 220.097,308.210 221.981 C 307.790 222.792,307.475 225.328,307.202 230.081 C 306.467 242.890,306.463 242.909,303.653 245.500 L 302.244 246.800 278.370 246.800 L 254.497 246.800 254.040 247.903 C 253.445 249.340,253.637 391.469,254.237 393.600 L 254.631 395.000 258.015 395.102 C 261.828 395.217,263.238 394.736,263.599 393.197 C 263.824 392.242,263.992 392.191,267.633 391.976 C 271.820 391.728,272.280 391.567,272.815 390.161 C 273.134 389.320,273.435 389.200,275.214 389.200 C 276.332 389.200,277.158 389.056,277.049 388.879 C 276.940 388.703,277.424 388.568,278.125 388.579 C 279.276 388.598,279.412 388.474,279.525 387.300 C 279.657 385.933,280.301 385.744,284.032 385.981 C 285.330 386.063,286.152 385.106,285.903 383.802 C 285.712 382.806,287.757 382.419,291.300 382.779 C 291.862 382.836,292.000 382.534,292.000 381.242 L 292.000 379.634 295.100 379.517 L 298.200 379.400 298.324 377.900 L 298.448 376.400 301.424 376.400 C 304.242 376.400,304.400 376.352,304.406 375.500 C 304.416 374.067,304.870 373.697,307.000 373.388 C 309.383 373.042,310.400 372.571,310.400 371.814 C 310.400 371.071,311.568 369.933,312.036 370.222 C 312.483 370.499,314.000 370.065,313.945 369.676 C 313.658 367.660,313.970 367.315,316.300 367.075 C 318.603 366.838,320.000 365.896,320.000 364.580 C 320.000 364.254,320.581 364.000,321.500 363.924 C 322.919 363.807,323.007 363.719,323.124 362.300 C 323.245 360.846,323.296 360.800,324.800 360.800 C 326.304 360.800,326.355 360.754,326.476 359.300 C 326.593 357.881,326.681 357.793,328.100 357.676 C 329.125 357.591,329.600 357.358,329.600 356.940 C 329.600 356.252,331.134 354.834,331.900 354.813 C 332.175 354.806,332.400 354.530,332.400 354.200 C 332.400 353.870,332.591 353.600,332.824 353.600 C 333.057 353.600,333.136 353.780,333.000 354.000 C 332.864 354.220,333.033 354.400,333.376 354.400 C 334.152 354.400,335.600 352.993,335.600 352.240 C 335.600 351.922,336.249 351.526,337.100 351.326 C 338.411 351.017,338.627 350.797,338.813 349.586 C 338.953 348.673,339.217 348.243,339.587 348.325 C 341.078 348.656,342.000 348.003,342.000 346.617 C 342.000 345.324,342.083 345.241,343.500 345.124 C 344.919 345.007,345.007 344.919,345.124 343.500 C 345.241 342.092,345.330 342.000,346.581 342.000 C 347.989 342.000,348.400 341.496,348.400 339.767 C 348.400 338.957,348.597 338.800,349.613 338.800 C 350.833 338.800,350.944 338.670,351.361 336.751 C 351.529 335.980,351.912 335.638,352.803 335.459 C 353.930 335.234,354.833 333.538,354.485 332.300 C 354.438 332.135,354.661 332.000,354.980 332.000 C 355.879 332.000,357.523 329.555,357.669 328.000 C 357.791 326.699,357.906 326.591,359.300 326.476 C 360.754 326.355,360.800 326.304,360.800 324.800 C 360.800 323.296,360.846 323.245,362.300 323.124 C 363.718 323.007,363.807 322.918,363.924 321.502 C 364.025 320.278,364.235 319.956,365.067 319.747 C 366.244 319.452,367.169 317.608,367.114 315.666 C 367.070 314.107,367.123 314.049,368.721 313.927 C 370.110 313.821,370.418 313.310,370.263 311.371 C 370.177 310.299,370.276 310.164,371.047 310.311 C 372.190 310.530,373.047 309.221,373.414 306.700 C 373.662 304.995,373.820 304.766,374.945 304.476 C 376.188 304.155,376.201 304.126,376.317 301.299 L 376.434 298.446 377.917 298.323 L 379.400 298.200 379.517 295.100 L 379.634 292.000 381.217 292.000 L 382.800 292.000 382.800 289.000 L 382.800 286.000 383.920 286.000 C 385.620 286.000,386.000 285.328,386.000 282.320 L 386.000 279.600 387.176 279.600 C 388.681 279.600,388.798 279.377,389.084 275.968 C 389.290 273.509,389.441 273.089,390.222 272.792 C 391.562 272.282,391.730 271.786,391.976 267.616 C 392.183 264.083,392.265 263.791,393.071 263.676 C 394.919 263.413,395.137 262.528,395.180 255.100 C 395.199 251.836,395.256 251.600,396.026 251.600 C 398.309 251.600,398.400 251.317,398.400 244.186 C 398.400 237.867,398.432 237.600,399.200 237.600 C 399.994 237.600,400.000 237.333,400.000 200.000 C 400.000 162.820,399.991 162.400,399.210 162.400 C 398.458 162.400,398.414 162.069,398.310 155.700 C 398.226 150.599,398.081 149.024,397.700 149.100 C 397.425 149.155,397.200 149.020,397.200 148.800 C 397.200 148.580,396.750 148.400,396.200 148.400 L 395.200 148.400 395.194 143.500 C 395.188 138.129,394.808 136.779,393.197 136.401 C 392.243 136.177,392.190 136.004,391.967 132.383 C 391.696 127.985,391.486 127.358,390.171 127.028 C 389.304 126.811,389.200 126.570,389.200 124.769 C 389.200 123.660,389.064 122.837,388.898 122.939 C 388.732 123.042,388.597 122.557,388.598 121.863 C 388.600 120.730,388.466 120.587,387.300 120.475 L 386.000 120.349 386.000 117.655 C 386.000 114.673,385.617 114.000,383.920 114.000 L 382.800 114.000 382.799 111.100 L 382.799 108.200 381.384 108.152 C 379.561 108.089,379.649 108.248,379.515 104.782 L 379.400 101.800 377.917 101.677 L 376.434 101.554 376.317 98.701 C 376.201 95.874,376.188 95.845,374.945 95.524 C 373.820 95.234,373.662 95.005,373.414 93.300 C 373.077 90.982,372.246 89.600,371.191 89.600 C 370.584 89.600,370.400 89.329,370.400 88.433 C 370.400 86.508,370.027 86.000,368.613 86.000 C 367.323 86.000,367.310 85.980,367.075 83.700 C 366.838 81.397,365.896 80.000,364.580 80.000 C 364.254 80.000,364.000 79.419,363.924 78.500 C 363.807 77.081,363.719 76.993,362.300 76.876 C 360.846 76.756,360.800 76.704,360.800 75.203 C 360.800 73.758,360.723 73.656,359.658 73.686 C 358.055 73.732,357.600 73.340,357.600 71.914 C 357.600 70.539,355.900 68.000,354.980 68.000 C 354.661 68.000,354.438 67.865,354.485 67.700 C 354.827 66.483,353.930 64.766,352.838 64.548 C 351.883 64.357,351.593 64.035,351.317 62.856 C 351.020 61.595,350.802 61.383,349.687 61.275 C 348.637 61.172,348.400 60.976,348.400 60.207 C 348.400 58.505,347.984 58.000,346.581 58.000 C 345.330 58.000,345.241 57.908,345.124 56.500 C 345.007 55.081,344.919 54.993,343.500 54.876 C 342.083 54.759,342.000 54.676,342.000 53.383 C 342.000 52.006,340.706 51.117,339.650 51.769 C 339.135 52.088,338.689 51.338,338.640 50.069 C 338.601 49.070,336.788 48.113,335.934 48.641 C 335.750 48.754,335.600 48.319,335.600 47.673 C 335.600 46.247,334.958 45.655,333.273 45.527 C 332.573 45.473,332.000 45.207,332.000 44.935 C 332.000 44.107,329.486 42.471,328.000 42.331 C 326.699 42.209,326.591 42.094,326.476 40.700 C 326.355 39.242,326.308 39.200,324.776 39.200 C 323.204 39.200,323.200 39.196,323.200 37.600 L 323.200 36.000 321.600 36.000 C 320.085 36.000,320.000 35.935,320.000 34.787 C 320.000 33.374,319.782 33.260,316.368 32.883 C 313.827 32.603,313.801 32.588,313.936 31.446 C 314.090 30.135,313.515 29.615,311.900 29.606 C 311.082 29.602,310.800 29.402,310.800 28.829 C 310.800 27.550,309.780 26.924,307.226 26.635 C 305.181 26.403,304.800 26.238,304.800 25.580 C 304.800 25.151,304.626 24.800,304.413 24.800 C 304.199 24.800,304.118 24.558,304.232 24.261 C 304.392 23.844,303.780 23.703,301.529 23.637 C 298.171 23.539,298.255 23.584,298.224 21.890 L 298.200 20.600 295.100 20.483 L 292.000 20.366 292.000 18.783 L 292.000 17.200 289.024 17.200 L 286.048 17.200 285.924 15.700 L 285.800 14.200 282.700 14.083 L 279.600 13.966 279.600 12.636 C 279.600 11.168,278.693 10.814,274.908 10.804 C 273.450 10.801,273.181 10.665,272.971 9.826 C 272.641 8.514,270.998 8.000,267.130 8.000 L 263.980 8.000 263.734 6.769 C 263.393 5.067,262.421 4.800,256.574 4.800 C 251.814 4.800,251.600 4.764,251.600 3.974 C 251.600 1.691,251.317 1.600,244.186 1.600 C 237.867 1.600,237.600 1.568,237.600 0.800 C 237.600 -0.352,236.107 -0.265,235.882 0.900 L 235.709 1.800 235.654 0.900 L 235.600 0.000 200.028 0.000 L 164.456 0.000 164.282 0.900 L 164.109 1.800 164.054 0.900 C 163.983 -0.286,162.400 -0.381,162.400 0.800 M70.400 44.357 C 70.400 44.554,70.115 44.824,69.767 44.957 C 68.789 45.333,68.659 45.251,69.200 44.600 C 69.752 43.935,70.400 43.804,70.400 44.357 M330.800 44.600 C 331.341 45.251,331.211 45.333,330.233 44.957 C 329.885 44.824,329.600 44.554,329.600 44.357 C 329.600 43.804,330.248 43.935,330.800 44.600 M44.967 69.743 C 44.709 70.413,44.000 70.660,44.000 70.080 C 44.000 69.691,44.892 68.759,45.083 68.949 C 45.158 69.024,45.105 69.381,44.967 69.743 M355.854 70.279 C 355.691 70.443,355.389 70.312,355.184 69.988 C 354.569 69.015,354.753 68.582,355.476 69.305 C 355.848 69.677,356.018 70.115,355.854 70.279 M356.000 329.951 C 356.000 330.144,355.730 330.526,355.400 330.800 C 354.749 331.341,354.667 331.211,355.043 330.233 C 355.300 329.563,356.000 329.357,356.000 329.951 M69.988 355.184 C 70.312 355.389,70.443 355.691,70.279 355.854 C 70.115 356.018,69.677 355.848,69.305 355.476 C 68.582 354.753,69.015 354.569,69.988 355.184 " stroke="none" fill="#4961a4" fill-rule="evenodd"></path><path id="path4" d="M260.600 60.798 C 251.134 61.886,242.862 63.304,240.832 64.187 C 239.604 64.721,237.430 65.444,236.000 65.795 C 234.570 66.146,232.770 66.856,232.000 67.373 C 231.230 67.891,229.960 68.516,229.179 68.762 C 228.397 69.009,226.783 69.838,225.592 70.605 C 224.401 71.372,223.266 72.000,223.068 72.000 C 222.871 72.000,221.632 72.810,220.315 73.800 C 218.998 74.790,217.737 75.600,217.514 75.600 C 217.290 75.600,216.452 76.237,215.653 77.015 C 210.431 82.099,209.230 83.307,207.800 84.913 C 204.891 88.179,201.689 92.835,200.229 95.920 C 199.677 97.087,198.869 98.494,198.433 99.049 C 197.997 99.603,197.347 101.079,196.989 102.328 C 196.630 103.578,195.921 105.320,195.413 106.200 C 194.905 107.080,194.180 109.321,193.802 111.179 C 193.424 113.037,192.680 115.891,192.148 117.519 C 190.628 122.178,190.348 127.524,190.122 156.320 L 189.911 183.240 188.873 183.920 C 187.934 184.536,185.505 184.619,163.230 184.800 L 138.623 185.000 138.118 186.000 C 137.292 187.633,137.379 242.013,138.210 243.620 L 138.821 244.800 162.423 244.800 C 187.782 244.800,187.922 244.811,189.348 246.847 C 189.945 247.700,190.000 254.171,190.000 323.889 C 190.000 391.277,190.069 400.000,190.600 400.000 C 191.530 400.000,191.509 248.389,190.578 246.062 C 189.565 243.529,190.345 243.600,163.595 243.600 C 139.914 243.600,139.216 243.578,138.814 242.826 C 138.362 241.981,138.215 189.775,138.657 187.100 L 138.905 185.600 163.393 185.600 C 188.650 185.600,189.986 185.521,190.808 183.984 C 191.052 183.530,191.206 173.512,191.215 157.526 C 191.232 127.894,191.461 122.834,192.933 119.600 C 193.548 118.248,194.115 115.935,194.404 113.600 C 194.767 110.660,195.128 109.392,195.998 108.000 C 196.616 107.010,197.352 105.120,197.632 103.800 C 197.952 102.295,198.557 100.917,199.254 100.105 C 199.866 99.393,200.570 98.043,200.818 97.105 C 201.067 96.166,201.793 94.916,202.435 94.323 C 203.076 93.730,203.600 92.986,203.600 92.669 C 203.600 92.351,204.388 91.126,205.351 89.946 C 206.315 88.766,207.227 87.393,207.380 86.896 C 207.532 86.398,208.159 85.732,208.772 85.414 C 209.385 85.097,210.115 84.289,210.392 83.619 C 210.670 82.948,211.114 82.400,211.379 82.400 C 211.961 82.400,213.600 80.719,213.600 80.123 C 213.600 79.889,214.146 79.471,214.814 79.194 C 215.481 78.918,216.384 78.239,216.819 77.685 C 217.255 77.131,218.485 76.260,219.553 75.748 C 220.622 75.237,221.779 74.387,222.125 73.858 C 222.502 73.283,223.317 72.792,224.156 72.635 C 224.927 72.490,226.305 71.748,227.217 70.986 C 228.129 70.224,229.084 69.599,229.338 69.598 C 230.564 69.592,232.898 68.666,233.980 67.756 C 234.840 67.031,235.958 66.633,237.892 66.361 C 239.382 66.152,241.705 65.449,243.056 64.799 C 247.834 62.502,262.546 61.877,291.400 62.745 C 300.200 63.010,308.390 63.356,309.600 63.514 L 311.800 63.800 311.903 88.955 C 311.975 106.512,311.876 114.268,311.574 114.631 C 311.234 115.041,307.115 115.177,292.071 115.276 L 273.000 115.400 271.000 116.447 C 269.900 117.023,267.851 117.693,266.446 117.937 C 263.961 118.367,262.000 119.262,262.000 119.966 C 262.000 120.157,261.276 120.603,260.391 120.957 C 259.490 121.318,258.591 122.021,258.347 122.556 C 258.108 123.082,257.486 123.740,256.966 124.018 C 256.447 124.296,255.831 125.100,255.599 125.803 C 255.367 126.507,254.737 127.495,254.200 128.000 C 253.002 129.125,252.530 130.565,252.166 134.200 C 252.012 135.740,251.552 138.169,251.143 139.599 C 249.941 143.802,250.005 182.805,251.216 184.016 C 252.759 185.559,253.527 185.600,281.177 185.600 C 311.130 185.600,309.173 185.416,309.236 188.242 C 309.335 192.671,307.999 208.282,307.421 209.439 C 306.439 211.406,306.004 214.471,305.584 222.400 C 305.156 230.478,305.068 231.137,303.976 234.434 C 303.569 235.663,303.114 237.913,302.964 239.434 C 302.815 240.955,302.515 242.425,302.297 242.700 C 301.989 243.090,296.712 243.200,278.338 243.200 C 251.897 243.200,252.668 243.122,251.224 245.954 C 250.214 247.932,249.910 391.556,250.913 392.809 C 251.580 393.643,253.629 395.200,254.060 395.200 C 254.253 395.200,253.914 394.448,253.306 393.529 L 252.200 391.859 252.081 320.429 C 251.998 270.505,252.091 248.555,252.391 247.521 C 253.346 244.226,251.888 244.400,278.473 244.400 L 302.038 244.400 302.968 243.397 C 304.278 241.984,305.449 235.926,306.209 226.635 C 306.549 222.474,307.167 217.524,307.582 215.635 C 308.377 212.019,308.900 207.862,309.600 199.600 C 309.833 196.850,310.289 193.340,310.612 191.800 C 311.587 187.159,311.444 185.763,309.940 185.239 C 309.074 184.937,300.238 184.800,281.640 184.799 C 255.156 184.797,254.573 184.780,253.266 183.983 L 251.931 183.170 252.122 160.885 C 252.317 138.089,252.621 133.328,254.047 130.718 C 254.351 130.161,255.030 128.916,255.557 127.952 C 256.763 125.741,259.757 122.368,261.143 121.658 C 261.724 121.360,262.844 120.682,263.632 120.151 C 264.420 119.620,266.367 118.914,267.960 118.581 C 269.553 118.249,271.968 117.685,273.328 117.328 C 275.350 116.797,279.015 116.635,293.472 116.439 C 310.630 116.207,311.176 116.176,312.272 115.357 L 313.400 114.513 313.400 89.274 C 313.400 60.331,313.805 63.025,309.400 62.643 C 289.486 60.921,266.948 60.068,260.600 60.798 " stroke="none" fill="#b4bcdc" fill-rule="evenodd"></path></g></svg>