<svg id="svg" version="1.1" xmlns="http://www.w3.org/2000/svg" xmlns:xlink="http://www.w3.org/1999/xlink" width="400" height="400" viewBox="0, 0, 400,400"><g id="svgg"><path id="path0" d="M14.133 14.630 C 13.224 17.000,14.519 22.764,16.029 23.066 C 16.987 23.257,17.175 23.511,17.279 24.746 C 17.393 26.112,17.491 26.208,18.900 26.324 C 20.358 26.445,20.400 26.492,20.400 28.024 C 20.400 29.133,20.572 29.600,20.979 29.600 C 22.387 29.600,23.600 31.418,23.600 33.528 C 23.600 35.527,23.624 35.568,24.963 35.819 C 26.113 36.035,26.364 36.281,26.573 37.399 C 26.821 38.717,27.414 39.200,28.786 39.200 C 29.381 39.200,29.557 39.672,29.795 41.900 C 30.094 44.701,30.399 45.184,31.876 45.194 C 32.598 45.199,32.774 45.463,32.876 46.700 C 32.993 48.119,33.081 48.207,34.500 48.324 C 35.921 48.442,36.000 48.521,36.000 49.837 C 36.000 51.958,36.945 53.849,38.157 54.153 C 39.059 54.380,39.200 54.627,39.200 55.983 C 39.200 57.507,39.243 57.555,40.700 57.676 C 42.119 57.793,42.207 57.881,42.324 59.300 C 42.397 60.178,42.658 60.800,42.954 60.800 C 43.955 60.800,45.134 62.616,45.421 64.600 C 45.732 66.743,46.086 67.184,47.500 67.194 C 48.255 67.199,48.400 67.418,48.400 68.557 C 48.400 69.981,48.897 70.400,50.586 70.400 C 51.437 70.400,51.520 70.600,51.674 73.027 C 51.849 75.778,52.245 76.382,53.876 76.394 C 54.598 76.399,54.774 76.663,54.876 77.900 C 54.993 79.319,55.081 79.407,56.500 79.524 C 57.849 79.636,58.000 79.762,58.000 80.774 C 58.000 83.163,58.509 84.500,59.667 85.153 C 60.502 85.625,60.879 86.207,61.058 87.300 C 61.234 88.384,61.501 88.800,62.018 88.800 C 63.495 88.800,64.000 89.269,64.000 90.643 C 64.000 91.960,64.048 92.000,65.600 92.000 L 67.200 92.000 67.200 94.571 C 67.200 97.405,67.773 98.400,69.404 98.400 C 70.210 98.400,70.370 98.624,70.476 99.900 C 70.593 101.319,70.681 101.407,72.100 101.524 L 73.600 101.648 73.600 103.996 C 73.600 106.484,74.215 107.600,75.586 107.600 C 76.389 107.600,76.800 108.355,76.800 109.833 C 76.800 110.672,76.986 110.800,78.200 110.800 C 79.520 110.800,79.600 110.876,79.600 112.133 C 79.600 113.134,80.000 113.900,81.200 115.200 C 82.393 116.492,82.800 117.269,82.800 118.252 C 82.800 119.653,83.626 120.400,85.174 120.400 C 85.851 120.400,86.000 120.652,86.000 121.795 C 86.000 123.114,86.088 123.205,87.600 123.446 L 89.200 123.702 89.200 126.171 C 89.200 128.916,89.615 129.600,91.280 129.600 C 92.320 129.600,92.400 129.714,92.400 131.200 C 92.400 132.750,92.442 132.800,93.748 132.800 L 95.097 132.800 95.367 135.190 C 95.649 137.685,96.340 138.800,97.604 138.800 C 98.179 138.800,98.380 139.146,98.476 140.300 C 98.593 141.719,98.681 141.807,100.100 141.924 C 101.558 142.045,101.600 142.092,101.600 143.624 C 101.600 144.491,101.751 145.200,101.936 145.200 C 102.120 145.200,102.470 145.634,102.711 146.165 C 102.953 146.696,103.522 147.248,103.976 147.392 C 104.641 147.603,104.800 147.988,104.800 149.384 C 104.800 151.211,105.188 151.600,107.009 151.600 C 107.810 151.600,107.970 151.826,108.076 153.100 C 108.188 154.457,108.319 154.612,109.456 154.722 C 110.693 154.842,110.716 154.883,110.997 157.522 C 111.294 160.301,111.600 160.784,113.076 160.794 C 113.798 160.799,113.974 161.063,114.076 162.300 C 114.192 163.707,114.289 163.807,115.645 163.921 L 117.090 164.042 117.345 166.480 C 117.634 169.244,118.086 170.000,119.449 170.000 C 120.292 170.000,120.400 170.182,120.400 171.600 L 120.400 173.200 122.000 173.200 L 123.600 173.200 123.600 174.800 C 123.600 176.052,123.752 176.403,124.300 176.413 C 125.345 176.431,126.378 178.120,126.667 180.282 C 126.943 182.346,127.297 182.784,128.700 182.794 C 129.384 182.799,129.600 183.033,129.600 183.767 C 129.600 185.485,130.013 186.000,131.388 186.000 L 132.690 186.000 132.903 188.650 C 133.125 191.409,133.502 191.983,135.100 191.994 C 135.882 191.999,136.000 192.209,136.000 193.600 C 136.000 195.190,136.009 195.200,137.544 195.200 L 139.088 195.200 139.325 197.500 C 139.564 199.817,140.505 201.200,141.844 201.200 C 142.225 201.200,142.400 201.698,142.400 202.782 C 142.400 204.273,142.480 204.379,143.800 204.626 C 144.993 204.850,145.200 205.050,145.200 205.977 C 145.200 206.796,145.572 207.307,146.700 208.036 C 148.027 208.895,148.229 209.244,148.451 211.063 C 148.770 213.672,148.988 214.000,150.399 214.000 C 151.442 214.000,151.564 214.143,151.676 215.500 C 151.793 216.919,151.881 217.007,153.300 217.124 L 154.800 217.248 154.800 219.197 C 154.800 220.814,154.660 221.191,153.976 221.408 C 153.522 221.552,152.953 222.104,152.711 222.635 C 152.470 223.166,152.120 223.600,151.936 223.600 C 151.751 223.600,151.600 224.207,151.600 224.949 C 151.600 226.213,151.500 226.314,150.000 226.554 C 148.488 226.795,148.400 226.886,148.400 228.205 C 148.400 229.466,148.293 229.600,147.280 229.600 C 145.866 229.600,145.200 230.258,145.200 231.655 C 145.200 232.597,145.019 232.767,143.900 232.875 C 142.717 232.989,142.589 233.133,142.477 234.477 C 142.362 235.865,142.265 235.962,140.877 236.077 C 139.485 236.193,139.393 236.286,139.276 237.700 C 139.159 239.108,139.070 239.200,137.819 239.200 C 136.416 239.200,136.000 239.705,136.000 241.406 C 136.000 242.125,135.750 242.377,134.940 242.473 C 133.817 242.608,133.384 243.146,133.027 244.856 C 132.888 245.521,132.467 245.997,131.886 246.143 C 130.856 246.401,129.600 248.814,129.600 250.534 C 129.600 251.485,129.449 251.600,128.205 251.600 C 126.886 251.600,126.795 251.688,126.554 253.200 C 126.314 254.700,126.213 254.800,124.949 254.800 C 123.642 254.800,123.600 254.850,123.600 256.400 L 123.600 258.000 122.000 258.000 C 120.447 258.000,120.400 258.040,120.400 259.360 C 120.400 260.603,120.270 260.751,118.900 261.073 C 117.605 261.377,117.383 261.596,117.278 262.672 C 117.173 263.739,116.959 263.956,115.793 264.175 C 114.639 264.391,114.392 264.635,114.180 265.768 C 113.980 266.834,113.673 267.178,112.664 267.466 C 111.628 267.762,111.364 268.074,111.200 269.197 C 111.047 270.247,110.768 270.621,110.003 270.800 C 108.908 271.058,108.015 272.468,108.006 273.956 C 108.000 274.951,107.236 275.761,105.700 276.404 C 105.012 276.691,104.800 277.107,104.800 278.166 C 104.800 279.479,104.721 279.558,103.300 279.676 C 101.886 279.793,101.793 279.885,101.677 281.277 C 101.562 282.665,101.465 282.762,100.077 282.877 C 98.685 282.993,98.593 283.086,98.476 284.500 C 98.359 285.917,98.276 286.000,96.981 286.000 C 95.693 286.000,95.594 286.097,95.357 287.578 C 95.131 288.989,94.972 289.169,93.852 289.278 C 92.720 289.388,92.588 289.544,92.476 290.900 C 92.365 292.238,92.233 292.400,91.256 292.400 C 89.881 292.400,89.200 293.062,89.200 294.397 C 89.200 295.221,88.933 295.513,87.907 295.817 C 86.784 296.150,86.570 296.435,86.271 298.000 C 85.892 299.984,84.661 301.600,83.530 301.600 C 82.947 301.600,82.800 301.917,82.800 303.176 C 82.800 304.708,82.758 304.755,81.300 304.876 C 79.881 304.993,79.793 305.081,79.676 306.500 C 79.559 307.908,79.470 308.000,78.220 308.000 C 77.023 308.000,76.863 308.137,76.634 309.357 C 76.417 310.518,76.179 310.752,74.990 310.976 C 73.722 311.213,73.600 311.357,73.600 312.618 C 73.600 313.813,73.469 314.000,72.633 314.000 C 70.896 314.000,70.400 314.409,70.400 315.843 C 70.400 317.013,70.266 317.200,69.429 317.200 C 68.207 317.200,67.200 318.180,67.200 319.371 C 67.200 320.058,66.878 320.376,65.903 320.656 C 65.086 320.891,64.562 321.319,64.487 321.814 C 64.183 323.836,63.950 324.294,63.010 324.723 C 62.454 324.976,62.000 325.380,62.000 325.620 C 62.000 325.860,61.730 326.327,61.400 326.657 C 61.070 326.987,60.800 327.784,60.800 328.429 C 60.800 329.501,60.681 329.600,59.400 329.600 C 58.033 329.600,58.000 329.638,58.000 331.200 L 58.000 332.800 56.400 332.800 C 54.804 332.800,54.800 332.804,54.800 334.376 C 54.800 335.908,54.758 335.955,53.300 336.076 C 51.881 336.193,51.793 336.281,51.676 337.700 C 51.559 339.108,51.470 339.200,50.219 339.200 C 48.811 339.200,48.400 339.704,48.400 341.433 C 48.400 342.265,48.211 342.400,47.051 342.400 C 45.787 342.400,45.686 342.500,45.446 344.000 C 45.234 345.326,45.034 345.600,44.275 345.600 C 43.048 345.600,42.400 346.322,42.400 347.690 C 42.400 348.521,42.141 348.918,41.419 349.193 C 40.189 349.661,39.200 351.526,39.200 353.380 C 39.200 354.770,39.166 354.800,37.600 354.800 L 36.000 354.800 36.000 356.400 L 36.000 358.000 34.400 358.000 C 32.838 358.000,32.800 358.033,32.800 359.400 C 32.800 360.548,32.651 360.800,31.974 360.800 C 30.488 360.800,29.600 361.553,29.600 362.814 C 29.600 363.716,29.417 364.000,28.833 364.000 C 27.303 364.000,26.800 364.456,26.800 365.843 C 26.800 367.012,26.666 367.200,25.833 367.200 C 24.096 367.200,23.600 367.609,23.600 369.043 C 23.600 370.182,23.455 370.401,22.700 370.406 C 21.344 370.415,20.749 370.955,20.445 372.448 C 20.245 373.432,19.929 373.835,19.284 373.928 C 18.290 374.072,17.831 374.763,17.399 376.775 C 17.110 378.120,15.852 379.560,14.943 379.587 C 13.945 379.616,13.556 384.596,14.480 385.520 C 15.015 386.055,49.641 386.193,52.600 385.672 C 54.051 385.417,54.212 385.267,54.328 384.065 C 54.428 383.020,54.697 382.655,55.599 382.341 C 56.770 381.932,57.600 380.370,57.600 378.573 C 57.600 376.898,58.022 376.400,59.443 376.400 C 60.717 376.400,60.800 376.318,60.800 375.051 C 60.800 373.787,60.900 373.686,62.400 373.446 C 63.912 373.205,64.000 373.114,64.000 371.795 C 64.000 370.586,64.129 370.400,64.967 370.400 C 66.704 370.400,67.200 369.991,67.200 368.557 C 67.200 367.337,67.313 367.200,68.320 367.200 C 69.734 367.200,70.400 366.542,70.400 365.145 C 70.400 364.203,70.581 364.033,71.700 363.925 C 72.887 363.811,73.011 363.669,73.124 362.300 C 73.235 360.962,73.367 360.800,74.344 360.800 C 75.726 360.800,76.400 360.137,76.400 358.778 C 76.400 357.923,76.653 357.643,77.700 357.343 C 78.826 357.020,79.053 356.726,79.400 355.141 C 79.851 353.076,80.546 352.077,81.884 351.568 C 82.595 351.298,82.800 350.910,82.800 349.834 C 82.800 348.521,82.879 348.442,84.300 348.324 C 85.719 348.207,85.807 348.119,85.924 346.700 C 86.041 345.283,86.124 345.200,87.419 345.200 C 88.710 345.200,88.806 345.106,89.046 343.600 C 89.286 342.100,89.387 342.000,90.651 342.000 C 91.925 342.000,92.000 341.922,92.000 340.608 C 92.000 339.414,92.157 339.181,93.100 338.974 C 95.075 338.541,95.200 338.439,95.200 337.244 C 95.200 336.237,95.391 336.022,96.500 335.782 C 98.010 335.454,98.385 335.007,98.394 333.527 C 98.399 332.666,98.610 332.428,99.460 332.327 C 100.586 332.192,101.015 331.655,101.377 329.927 C 101.501 329.336,101.916 328.745,102.301 328.612 C 103.230 328.291,104.800 325.782,104.800 324.617 C 104.800 323.873,105.078 323.637,106.200 323.426 C 107.473 323.187,107.600 323.041,107.600 321.806 C 107.600 320.526,107.686 320.441,109.100 320.324 C 110.514 320.207,110.607 320.115,110.723 318.723 C 110.838 317.335,110.935 317.238,112.323 317.123 C 113.715 317.007,113.807 316.914,113.924 315.500 C 114.041 314.092,114.130 314.000,115.381 314.000 C 116.784 314.000,117.200 313.495,117.200 311.793 C 117.200 311.024,117.437 310.828,118.487 310.725 C 119.610 310.616,119.820 310.408,120.127 309.100 C 120.402 307.928,120.672 307.600,121.360 307.600 C 122.554 307.600,123.200 306.866,123.200 305.510 C 123.200 304.679,123.459 304.282,124.181 304.007 C 125.411 303.539,126.400 301.674,126.400 299.820 C 126.400 298.430,126.434 298.400,128.000 298.400 L 129.600 298.400 129.600 296.800 L 129.600 295.200 131.200 295.200 C 132.796 295.200,132.800 295.196,132.800 293.624 C 132.800 292.092,132.842 292.045,134.300 291.924 C 135.666 291.811,135.811 291.685,135.924 290.514 C 136.031 289.407,136.236 289.192,137.387 288.976 C 138.500 288.767,138.765 288.510,138.965 287.444 C 139.155 286.433,139.478 286.084,140.503 285.782 C 141.569 285.468,141.822 285.174,141.923 284.127 C 142.027 283.058,142.252 282.809,143.323 282.576 C 144.816 282.253,145.186 281.803,145.194 280.300 C 145.198 279.473,145.396 279.200,145.991 279.200 C 147.057 279.200,148.057 277.569,148.297 275.438 C 148.486 273.759,148.558 273.677,150.047 273.439 C 151.507 273.205,151.600 273.107,151.600 271.795 C 151.600 270.476,151.674 270.400,152.957 270.400 C 154.391 270.400,154.800 269.904,154.800 268.167 C 154.800 267.328,154.986 267.200,156.200 267.200 C 157.563 267.200,157.600 267.158,157.600 265.624 C 157.600 264.092,157.642 264.045,159.100 263.924 C 160.514 263.807,160.607 263.715,160.723 262.323 C 160.838 260.935,160.935 260.838,162.323 260.723 C 163.711 260.607,163.807 260.511,163.923 259.124 C 164.034 257.787,164.166 257.636,165.323 257.524 C 166.430 257.416,166.649 257.200,166.971 255.900 C 167.223 254.878,167.565 254.400,168.042 254.400 C 169.094 254.400,169.896 253.394,170.188 251.708 C 170.482 250.011,171.623 248.400,172.531 248.400 C 172.862 248.400,173.224 248.175,173.335 247.900 C 173.496 247.500,173.543 247.500,173.568 247.900 C 173.587 248.196,174.156 248.400,174.961 248.400 L 176.321 248.400 176.601 250.812 C 176.896 253.350,177.548 254.400,178.829 254.400 C 179.378 254.400,179.600 254.679,179.600 255.367 C 179.600 257.104,180.009 257.600,181.443 257.600 C 182.760 257.600,182.800 257.648,182.800 259.200 C 182.800 260.080,182.951 260.800,183.136 260.800 C 183.320 260.800,183.670 261.234,183.911 261.765 C 184.153 262.296,184.722 262.848,185.176 262.992 C 185.841 263.203,186.000 263.588,186.000 264.984 C 186.000 266.811,186.388 267.200,188.209 267.200 C 189.010 267.200,189.170 267.426,189.276 268.700 C 189.386 270.036,189.531 270.215,190.599 270.336 C 192.156 270.513,192.387 270.940,192.394 273.657 C 192.400 275.999,192.698 276.400,194.433 276.400 C 194.978 276.400,195.200 276.680,195.200 277.367 C 195.200 279.084,195.613 279.600,196.986 279.600 C 198.284 279.600,198.286 279.604,198.543 282.059 C 198.833 284.832,199.285 285.600,200.625 285.600 C 201.406 285.600,201.571 285.835,201.676 287.087 C 201.789 288.442,201.934 288.606,203.300 288.927 C 204.670 289.249,204.800 289.397,204.800 290.640 C 204.800 291.388,204.937 292.000,205.105 292.000 C 205.273 292.000,205.588 292.405,205.805 292.900 C 206.022 293.395,206.597 293.974,207.082 294.187 C 207.773 294.490,207.989 294.966,208.082 296.387 C 208.193 298.096,208.272 298.207,209.452 298.322 C 210.572 298.431,210.731 298.611,210.957 300.022 C 211.193 301.494,211.299 301.600,212.547 301.600 L 213.884 301.600 214.129 304.216 C 214.425 307.392,214.540 307.600,215.999 307.600 C 217.042 307.600,217.164 307.743,217.276 309.100 C 217.393 310.519,217.481 310.607,218.900 310.724 L 220.400 310.848 220.406 312.724 C 220.414 315.204,221.130 316.566,222.509 316.727 C 223.485 316.840,223.600 317.015,223.600 318.384 C 223.600 319.954,224.050 320.400,225.633 320.400 C 226.141 320.400,226.400 320.678,226.400 321.226 C 226.400 322.349,227.113 323.600,227.752 323.600 C 228.643 323.600,229.600 325.002,229.600 326.305 C 229.600 328.524,230.242 329.600,231.566 329.600 C 232.647 329.600,232.763 329.732,232.876 331.100 C 232.993 332.519,233.081 332.607,234.500 332.724 L 236.000 332.848 236.000 335.050 C 236.000 337.884,236.492 338.800,238.014 338.800 C 239.128 338.800,239.200 338.896,239.200 340.376 C 239.200 341.908,239.242 341.955,240.700 342.076 C 242.045 342.187,242.211 342.324,242.303 343.400 C 242.520 345.939,243.206 347.586,244.143 347.822 C 244.824 347.992,245.152 348.478,245.428 349.725 C 245.762 351.231,245.932 351.413,247.100 351.525 C 248.292 351.640,248.400 351.766,248.400 353.035 C 248.400 354.093,248.613 354.509,249.300 354.796 C 251.132 355.563,251.600 356.227,251.600 358.064 C 251.600 360.122,252.116 360.800,253.680 360.800 C 254.720 360.800,254.800 360.914,254.800 362.400 L 254.800 364.000 256.400 364.000 L 258.000 364.000 258.000 366.520 C 258.000 369.207,258.417 370.000,259.829 370.000 C 260.531 370.000,260.746 370.302,260.950 371.575 C 261.177 372.996,261.328 373.162,262.498 373.275 C 263.710 373.392,263.812 373.520,264.057 375.251 C 264.402 377.680,265.002 378.735,266.212 379.039 C 267.005 379.238,267.200 379.539,267.200 380.563 C 267.200 382.129,267.817 382.800,269.256 382.800 C 270.233 382.800,270.365 382.962,270.476 384.300 L 270.600 385.800 328.200 385.800 L 385.800 385.800 385.918 383.554 C 386.135 379.440,385.588 377.458,384.115 377.023 C 383.028 376.701,382.821 376.435,382.720 375.223 C 382.608 373.893,382.502 373.792,381.100 373.676 C 379.642 373.555,379.600 373.508,379.600 371.976 C 379.600 371.109,379.449 370.400,379.264 370.400 C 379.080 370.400,378.730 369.966,378.489 369.435 C 378.247 368.904,377.678 368.352,377.224 368.208 C 376.557 367.996,376.400 367.612,376.400 366.191 C 376.400 364.511,376.342 364.425,375.037 364.181 C 373.887 363.965,373.636 363.719,373.427 362.601 C 373.180 361.286,372.586 360.800,371.225 360.800 C 370.643 360.800,370.472 360.330,370.271 358.184 C 369.975 355.008,369.860 354.800,368.401 354.800 C 367.358 354.800,367.236 354.657,367.124 353.300 C 367.008 351.893,366.911 351.793,365.555 351.679 L 364.110 351.558 363.854 349.079 C 363.590 346.527,362.969 345.600,361.524 345.600 C 360.948 345.600,360.800 345.278,360.800 344.024 C 360.800 342.492,360.758 342.445,359.300 342.324 C 357.881 342.207,357.793 342.119,357.676 340.700 C 357.603 339.822,357.342 339.200,357.046 339.200 C 356.058 339.200,354.893 337.384,354.608 335.400 C 354.304 333.279,353.932 332.816,352.524 332.806 C 351.802 332.801,351.626 332.537,351.524 331.300 C 351.407 329.881,351.319 329.793,349.900 329.676 L 348.400 329.552 348.400 327.350 C 348.400 324.516,347.908 323.600,346.386 323.600 C 345.269 323.600,345.200 323.507,345.200 322.000 L 345.200 320.400 343.600 320.400 L 342.000 320.400 342.000 318.626 C 342.000 316.206,341.421 314.871,340.243 314.575 C 339.480 314.384,339.200 313.984,339.001 312.803 C 338.773 311.455,338.584 311.249,337.371 311.021 C 336.124 310.787,336.000 310.639,336.000 309.382 C 336.000 308.335,335.830 307.998,335.300 307.993 C 333.987 307.980,332.800 306.237,332.800 304.324 C 332.800 302.286,332.282 301.600,330.744 301.600 C 329.767 301.600,329.635 301.438,329.524 300.100 C 329.407 298.681,329.319 298.593,327.900 298.476 L 326.400 298.352 326.400 295.856 C 326.400 293.189,325.980 292.400,324.563 292.400 C 323.621 292.400,323.200 291.711,323.200 290.167 C 323.200 289.328,323.014 289.200,321.800 289.200 C 320.510 289.200,320.400 289.106,320.400 287.995 C 320.400 287.332,320.233 286.477,320.029 286.095 C 319.825 285.713,319.560 285.082,319.439 284.694 C 319.319 284.306,318.766 283.815,318.210 283.604 C 317.396 283.294,317.200 282.949,317.200 281.824 C 317.200 280.344,316.406 279.600,314.826 279.600 C 314.149 279.600,314.000 279.348,314.000 278.205 C 314.000 276.886,313.912 276.795,312.400 276.554 L 310.800 276.298 310.800 273.592 C 310.800 270.707,310.585 270.400,308.567 270.400 C 307.705 270.400,307.600 270.226,307.600 268.800 C 307.600 267.250,307.558 267.200,306.252 267.200 L 304.903 267.200 304.621 264.704 C 304.302 261.881,303.904 261.200,302.575 261.200 C 301.793 261.200,301.629 260.966,301.524 259.700 C 301.407 258.281,301.319 258.193,299.900 258.076 C 298.460 257.957,298.400 257.892,298.399 256.476 C 298.397 254.737,297.198 252.580,296.028 252.209 C 295.381 252.003,295.200 251.612,295.200 250.416 C 295.200 248.803,294.758 248.400,292.991 248.400 C 292.190 248.400,292.030 248.174,291.924 246.900 C 291.812 245.545,291.679 245.388,290.553 245.279 C 289.321 245.159,289.301 245.121,288.953 242.279 C 288.602 239.419,288.591 239.399,287.323 239.276 C 286.166 239.164,286.034 239.013,285.923 237.676 C 285.808 236.296,285.706 236.192,284.356 236.079 L 282.912 235.958 282.664 233.308 C 282.409 230.574,282.044 230.017,280.500 230.006 C 279.720 230.001,279.600 229.790,279.600 228.424 C 279.600 226.892,279.558 226.845,278.100 226.724 C 276.681 226.607,276.593 226.519,276.476 225.100 C 276.408 224.275,276.183 223.600,275.976 223.600 C 275.769 223.600,275.600 223.343,275.600 223.029 C 275.600 222.715,275.116 222.077,274.525 221.612 C 273.769 221.018,273.383 220.266,273.225 219.083 C 273.019 217.539,272.895 217.390,271.723 217.276 C 270.566 217.164,270.434 217.013,270.323 215.676 C 270.207 214.285,270.114 214.193,268.700 214.076 L 267.200 213.952 267.200 211.750 C 267.200 208.916,266.708 208.000,265.186 208.000 C 264.069 208.000,264.000 207.907,264.000 206.400 L 264.000 204.800 262.400 204.800 L 260.800 204.800 260.794 202.900 C 260.787 200.532,260.091 199.104,258.797 198.801 C 257.990 198.613,257.776 198.288,257.677 197.098 C 257.566 195.773,257.417 195.602,256.177 195.369 C 255.008 195.150,254.800 194.946,254.800 194.023 C 254.800 193.204,254.428 192.694,253.300 191.965 C 251.969 191.105,251.777 190.772,251.593 188.998 C 251.330 186.461,251.023 186.000,249.601 186.000 C 248.558 186.000,248.436 185.857,248.324 184.500 C 248.207 183.081,248.119 182.993,246.700 182.876 L 245.200 182.752 245.200 180.256 C 245.200 177.482,244.789 176.800,243.120 176.800 C 242.080 176.800,242.000 176.686,242.000 175.200 C 242.000 173.638,241.967 173.600,240.600 173.600 C 239.398 173.600,239.200 173.467,239.200 172.662 C 239.200 171.600,240.330 170.400,241.331 170.400 C 241.845 170.400,242.000 170.028,242.000 168.800 L 242.000 167.200 243.600 167.200 C 245.196 167.200,245.200 167.196,245.200 165.624 C 245.200 164.092,245.242 164.045,246.700 163.924 C 248.114 163.807,248.207 163.715,248.323 162.323 C 248.438 160.935,248.535 160.838,249.923 160.723 C 251.315 160.607,251.407 160.514,251.524 159.100 C 251.641 157.690,251.728 157.600,252.989 157.600 C 254.238 157.600,254.348 157.492,254.596 156.023 C 254.835 154.612,254.996 154.433,256.131 154.323 C 257.244 154.215,257.425 154.029,257.600 152.803 C 257.769 151.624,257.987 151.374,259.000 151.203 C 260.028 151.029,260.253 150.761,260.570 149.332 C 260.818 148.216,261.236 147.530,261.835 147.257 C 262.328 147.032,262.848 146.478,262.992 146.024 C 263.136 145.571,263.422 145.200,263.627 145.200 C 263.832 145.200,264.000 144.480,264.000 143.600 L 264.000 142.000 265.600 142.000 C 267.162 142.000,267.200 141.967,267.200 140.600 C 267.200 139.452,267.349 139.200,268.026 139.200 C 269.512 139.200,270.400 138.447,270.400 137.186 C 270.400 136.132,270.535 136.000,271.613 136.000 C 272.836 136.000,272.942 135.874,273.368 133.925 C 273.556 133.066,273.862 132.825,274.901 132.725 C 276.087 132.611,276.211 132.469,276.324 131.100 C 276.435 129.762,276.567 129.600,277.544 129.600 C 278.942 129.600,279.600 128.935,279.600 127.520 C 279.600 126.627,279.782 126.399,280.500 126.394 C 281.852 126.385,282.299 125.947,282.601 124.333 C 282.798 123.283,283.126 122.805,283.755 122.647 C 284.743 122.399,286.000 119.946,286.000 118.266 C 286.000 117.321,286.154 117.200,287.357 117.200 C 288.791 117.200,289.200 116.704,289.200 114.967 C 289.200 114.128,289.386 114.000,290.600 114.000 C 291.967 114.000,292.000 113.962,292.000 112.400 L 292.000 110.800 293.600 110.800 C 295.196 110.800,295.200 110.796,295.200 109.224 C 295.200 107.692,295.242 107.645,296.700 107.524 C 298.066 107.411,298.211 107.285,298.324 106.114 C 298.432 104.999,298.633 104.793,299.828 104.568 C 300.897 104.368,301.259 104.072,301.437 103.255 C 301.846 101.377,301.937 101.260,303.076 101.129 C 304.025 101.020,304.220 100.793,304.328 99.670 C 304.428 98.620,304.696 98.255,305.599 97.941 C 306.770 97.532,307.600 95.970,307.600 94.173 C 307.600 92.498,308.022 92.000,309.443 92.000 C 310.727 92.000,310.800 91.925,310.800 90.600 C 310.800 89.386,310.928 89.200,311.767 89.200 C 313.496 89.200,314.000 88.789,314.000 87.381 C 314.000 86.130,314.092 86.041,315.500 85.924 C 316.919 85.807,317.007 85.719,317.124 84.300 C 317.241 82.892,317.330 82.800,318.581 82.800 C 319.984 82.800,320.400 82.295,320.400 80.593 C 320.400 79.822,320.637 79.628,321.700 79.525 C 322.887 79.411,323.011 79.269,323.124 77.900 C 323.235 76.562,323.367 76.400,324.344 76.400 C 325.728 76.400,326.400 75.737,326.400 74.370 C 326.400 73.500,326.625 73.255,327.607 73.059 C 328.861 72.808,329.600 71.617,329.600 69.844 C 329.600 68.803,331.132 67.200,332.126 67.200 C 332.644 67.200,332.800 66.835,332.800 65.624 C 332.800 64.092,332.842 64.045,334.300 63.924 C 335.719 63.807,335.807 63.719,335.924 62.300 C 336.041 60.892,336.130 60.800,337.381 60.800 C 338.789 60.800,339.200 60.296,339.200 58.567 C 339.200 57.728,339.386 57.600,340.600 57.600 C 341.926 57.600,342.000 57.528,342.000 56.235 C 342.000 54.955,342.099 54.854,343.600 54.600 C 345.089 54.348,345.200 54.238,345.200 53.009 C 345.200 51.824,345.339 51.663,346.561 51.434 C 347.911 51.180,348.400 50.593,348.400 49.225 C 348.400 48.768,348.862 48.383,349.697 48.144 C 350.514 47.909,351.038 47.481,351.113 46.986 C 351.419 44.950,351.661 44.435,352.424 44.192 C 352.876 44.049,353.411 43.497,353.613 42.966 C 353.815 42.435,354.165 42.000,354.390 42.000 C 354.616 42.000,354.800 41.381,354.800 40.625 C 354.800 39.367,354.910 39.240,356.100 39.125 C 357.283 39.011,357.411 38.867,357.523 37.523 C 357.638 36.135,357.735 36.038,359.123 35.923 C 360.511 35.807,360.607 35.711,360.723 34.323 C 360.838 32.935,360.935 32.838,362.323 32.723 C 363.715 32.607,363.807 32.514,363.924 31.100 C 364.041 29.692,364.130 29.600,365.381 29.600 C 366.784 29.600,367.200 29.095,367.200 27.393 C 367.200 26.622,367.437 26.428,368.500 26.325 C 369.633 26.216,369.848 26.007,370.171 24.700 C 370.459 23.533,370.737 23.200,371.422 23.200 C 373.019 23.200,374.063 19.072,373.382 15.447 L 373.111 14.000 354.555 14.000 C 336.857 14.000,336.000 14.034,336.000 14.730 C 336.000 15.628,334.392 17.200,333.474 17.200 C 332.956 17.200,332.800 17.565,332.800 18.776 C 332.800 20.308,332.758 20.355,331.300 20.476 C 329.881 20.593,329.793 20.681,329.676 22.100 C 329.560 23.502,329.466 23.600,328.246 23.600 C 327.071 23.600,326.904 23.749,326.571 25.100 C 326.248 26.407,326.033 26.616,324.900 26.725 C 323.721 26.839,323.600 26.973,323.600 28.174 C 323.600 29.409,323.493 29.515,322.000 29.754 C 320.500 29.994,320.400 30.094,320.400 31.360 C 320.400 32.580,320.268 32.736,319.039 32.966 C 317.670 33.223,317.200 33.805,317.200 35.243 C 317.200 35.787,316.839 36.092,315.995 36.261 C 315.115 36.437,314.726 36.785,314.553 37.551 C 314.423 38.128,314.191 39.140,314.038 39.800 C 313.860 40.565,313.223 41.350,312.279 41.967 C 311.163 42.697,310.800 43.205,310.800 44.042 C 310.800 44.999,310.624 45.166,309.500 45.275 C 308.317 45.389,308.189 45.533,308.077 46.877 C 307.962 48.265,307.865 48.362,306.477 48.477 C 305.089 48.593,304.993 48.689,304.877 50.077 C 304.762 51.465,304.665 51.562,303.277 51.677 C 301.885 51.793,301.793 51.886,301.676 53.300 C 301.559 54.708,301.470 54.800,300.219 54.800 C 298.816 54.800,298.400 55.305,298.400 57.007 C 298.400 57.778,298.163 57.972,297.100 58.075 C 295.951 58.185,295.777 58.363,295.600 59.600 C 295.439 60.726,295.204 61.025,294.400 61.128 C 293.194 61.283,292.400 62.219,292.400 63.486 C 292.400 64.109,292.074 64.544,291.419 64.793 C 290.189 65.261,289.200 67.126,289.200 68.980 C 289.200 70.370,289.166 70.400,287.600 70.400 L 286.000 70.400 286.000 72.000 L 286.000 73.600 284.400 73.600 C 282.840 73.600,282.800 73.635,282.800 74.992 C 282.800 76.186,282.643 76.419,281.700 76.626 C 279.722 77.059,279.600 77.161,279.600 78.387 C 279.600 79.316,279.420 79.600,278.833 79.600 C 277.303 79.600,276.800 80.056,276.800 81.443 C 276.800 82.612,276.666 82.800,275.833 82.800 C 274.096 82.800,273.600 83.209,273.600 84.643 C 273.600 85.782,273.455 86.001,272.700 86.006 C 271.344 86.015,270.749 86.555,270.445 88.048 C 270.245 89.032,269.929 89.435,269.284 89.528 C 268.294 89.671,267.831 90.364,267.407 92.341 C 267.086 93.833,266.055 95.055,264.936 95.267 C 264.407 95.367,264.165 95.826,264.076 96.903 C 263.959 98.308,263.870 98.400,262.619 98.400 C 261.211 98.400,260.800 98.904,260.800 100.633 C 260.800 101.472,260.614 101.600,259.400 101.600 C 258.033 101.600,258.000 101.638,258.000 103.200 L 258.000 104.800 256.400 104.800 C 254.804 104.800,254.800 104.804,254.800 106.376 C 254.800 107.908,254.758 107.955,253.300 108.076 C 251.886 108.193,251.793 108.285,251.677 109.676 C 251.566 111.013,251.434 111.164,250.277 111.276 C 249.170 111.384,248.951 111.600,248.629 112.900 C 248.377 113.922,248.035 114.400,247.558 114.400 C 246.506 114.400,245.704 115.406,245.412 117.092 C 245.117 118.795,243.976 120.400,243.060 120.400 C 242.642 120.400,242.409 120.875,242.324 121.900 C 242.207 123.319,242.119 123.407,240.700 123.524 C 239.290 123.641,239.200 123.728,239.200 124.989 C 239.200 126.241,239.095 126.347,237.600 126.600 C 236.099 126.854,236.000 126.955,236.000 128.235 C 236.000 129.412,235.867 129.600,235.033 129.600 C 233.296 129.600,232.800 130.009,232.800 131.443 C 232.800 132.681,232.696 132.800,231.614 132.800 C 230.353 132.800,229.600 133.688,229.600 135.174 C 229.600 135.722,229.341 136.000,228.833 136.000 C 227.318 136.000,226.800 136.458,226.800 137.798 C 226.800 138.975,226.659 139.137,225.439 139.366 C 224.032 139.630,223.600 140.200,223.600 141.789 C 223.600 142.439,223.306 142.787,222.610 142.962 C 222.066 143.098,221.353 143.703,221.026 144.305 C 220.483 145.306,220.431 145.325,220.416 144.533 C 220.386 142.884,219.964 142.400,218.557 142.400 C 217.285 142.400,217.200 142.317,217.200 141.061 C 217.200 139.294,216.147 137.250,214.957 136.707 C 214.197 136.361,214.000 135.965,214.000 134.779 C 214.000 133.206,213.547 132.800,211.791 132.800 C 210.990 132.800,210.830 132.574,210.724 131.300 C 210.611 129.931,210.487 129.789,209.301 129.675 C 207.857 129.535,207.680 129.153,207.505 125.800 C 207.403 123.861,207.360 123.796,206.100 123.675 C 205.037 123.572,204.800 123.378,204.800 122.607 C 204.800 120.917,204.382 120.400,203.014 120.400 C 201.716 120.400,201.714 120.396,201.457 117.941 C 201.166 115.156,200.716 114.400,199.351 114.400 C 198.512 114.400,198.400 114.216,198.400 112.835 C 198.400 111.321,198.348 111.262,196.800 111.000 C 195.357 110.756,195.200 110.614,195.200 109.552 C 195.200 107.646,194.176 105.659,193.047 105.376 C 192.204 105.165,192.023 104.856,191.921 103.462 C 191.808 101.909,191.715 101.792,190.500 101.675 C 189.437 101.572,189.200 101.378,189.200 100.607 C 189.200 98.897,188.785 98.400,187.357 98.400 C 186.010 98.400,186.000 98.386,185.960 96.500 C 185.895 93.379,185.544 92.617,184.107 92.476 C 182.968 92.365,182.834 92.209,182.723 90.876 C 182.607 89.485,182.514 89.393,181.100 89.276 L 179.600 89.152 179.600 87.202 C 179.600 84.270,179.068 83.200,177.610 83.200 C 176.471 83.200,176.400 83.109,176.400 81.643 C 176.400 80.045,175.957 79.600,174.367 79.600 C 173.859 79.600,173.600 79.322,173.600 78.774 C 173.600 77.651,172.887 76.400,172.248 76.400 C 171.357 76.400,170.400 74.998,170.400 73.695 C 170.400 71.476,169.758 70.400,168.434 70.400 C 167.353 70.400,167.237 70.268,167.124 68.900 C 167.007 67.481,166.919 67.393,165.500 67.276 L 164.000 67.152 164.000 64.950 C 164.000 62.116,163.508 61.200,161.986 61.200 C 160.872 61.200,160.800 61.104,160.800 59.624 C 160.800 58.092,160.758 58.045,159.300 57.924 L 157.800 57.800 157.557 55.259 C 157.313 52.706,156.878 52.018,155.500 52.006 C 155.017 52.002,154.800 51.682,154.800 50.974 C 154.800 49.295,154.100 48.400,152.786 48.400 C 151.696 48.400,151.600 48.286,151.600 46.990 C 151.600 45.906,151.392 45.493,150.700 45.204 C 148.913 44.456,148.400 43.761,148.400 42.089 C 148.400 39.666,148.103 39.200,146.557 39.200 C 145.240 39.200,145.200 39.152,145.200 37.600 L 145.200 36.000 143.600 36.000 L 142.000 36.000 142.000 33.633 C 142.000 30.553,141.758 30.000,140.408 30.000 C 139.427 30.000,139.273 29.819,139.046 28.400 C 138.852 27.182,138.608 26.800,138.028 26.800 C 136.622 26.800,136.000 26.328,135.998 25.257 C 135.993 22.851,135.213 21.183,133.977 20.935 C 132.971 20.734,132.800 20.516,132.800 19.430 C 132.800 17.871,132.181 17.200,130.744 17.200 C 129.767 17.200,129.635 17.038,129.524 15.700 L 129.400 14.200 71.888 14.099 C 19.739 14.007,14.353 14.056,14.133 14.630 M108.000 43.600 C 108.000 45.150,108.042 45.200,109.348 45.200 L 110.697 45.200 110.979 47.696 C 111.300 50.530,111.695 51.200,113.049 51.200 C 113.867 51.200,114.000 51.393,114.000 52.586 C 114.000 54.056,114.798 54.800,116.374 54.800 C 117.051 54.800,117.200 55.052,117.200 56.200 C 117.200 57.047,117.398 57.605,117.700 57.613 C 119.008 57.646,120.400 59.547,120.400 61.301 C 120.400 63.323,120.922 64.000,122.480 64.000 C 123.520 64.000,123.600 64.114,123.600 65.600 C 123.600 67.153,123.640 67.200,124.961 67.200 L 126.321 67.200 126.601 69.612 C 126.896 72.150,127.548 73.200,128.829 73.200 C 129.378 73.200,129.600 73.479,129.600 74.167 C 129.600 75.904,130.009 76.400,131.443 76.400 C 132.760 76.400,132.800 76.448,132.800 78.000 C 132.800 79.282,132.945 79.600,133.530 79.600 C 134.843 79.600,135.939 81.237,136.075 83.400 C 136.197 85.345,136.241 85.410,137.700 85.771 C 139.056 86.106,139.200 86.268,139.200 87.463 C 139.200 88.580,139.371 88.822,140.300 89.026 C 140.905 89.158,141.616 89.333,141.879 89.413 C 142.161 89.499,142.409 90.519,142.479 91.880 C 142.592 94.041,142.686 94.241,143.861 94.800 C 144.849 95.270,145.176 95.726,145.366 96.900 C 145.593 98.300,145.702 98.400,147.005 98.400 C 148.335 98.400,148.400 98.466,148.400 99.813 C 148.400 100.797,148.612 101.300,149.100 101.472 C 150.634 102.014,151.600 103.313,151.600 104.837 C 151.600 107.128,151.915 107.600,153.443 107.600 C 154.760 107.600,154.800 107.648,154.800 109.200 L 154.800 110.800 156.400 110.800 L 158.000 110.800 158.000 113.026 C 158.000 115.712,158.510 116.800,159.770 116.800 C 160.541 116.800,160.762 117.071,160.992 118.299 C 161.301 119.946,161.743 120.385,163.100 120.394 C 163.857 120.399,164.000 120.618,164.000 121.773 C 164.000 122.816,164.202 123.210,164.839 123.413 C 166.401 123.908,167.200 125.095,167.200 126.920 C 167.200 128.915,167.725 129.600,169.256 129.600 C 170.233 129.600,170.365 129.762,170.476 131.100 C 170.593 132.519,170.681 132.607,172.100 132.724 L 173.600 132.848 173.605 134.724 C 173.614 137.618,173.938 138.361,175.347 138.724 C 176.431 139.003,176.617 139.245,176.724 140.523 C 176.841 141.915,176.927 142.000,178.224 142.000 C 179.532 142.000,179.600 142.070,179.600 143.413 C 179.600 144.397,179.812 144.900,180.300 145.072 C 181.834 145.614,182.800 146.913,182.800 148.437 C 182.800 150.626,183.121 151.149,184.639 151.434 C 185.859 151.663,186.000 151.825,186.000 153.002 C 186.000 154.388,186.512 154.800,188.233 154.800 C 189.110 154.800,189.200 154.964,189.200 156.574 C 189.200 159.160,189.745 160.280,191.153 160.590 C 192.191 160.818,192.372 161.055,192.477 162.327 C 192.589 163.666,192.718 163.811,193.900 163.925 C 195.093 164.040,195.200 164.165,195.200 165.438 C 195.200 166.398,195.415 166.901,195.900 167.072 C 197.301 167.566,198.400 168.926,198.405 170.170 C 198.416 172.603,198.779 173.200,200.247 173.200 C 201.559 173.200,201.600 173.249,201.600 174.800 L 201.600 176.400 203.200 176.400 L 204.800 176.400 204.800 178.374 C 204.800 181.176,205.323 182.316,206.679 182.471 C 207.637 182.581,207.819 182.803,207.933 183.997 C 208.077 185.518,208.530 185.984,209.875 185.994 C 210.561 185.999,210.776 186.271,210.875 187.260 C 210.946 187.981,211.327 188.707,211.765 188.960 C 213.363 189.880,214.000 190.811,214.000 192.226 C 214.000 194.282,214.615 195.200,215.990 195.200 C 217.044 195.200,217.163 195.339,217.276 196.700 C 217.392 198.109,217.488 198.207,218.855 198.321 L 220.310 198.443 220.475 201.049 C 220.650 203.786,221.046 204.383,222.700 204.394 C 223.482 204.399,223.600 204.609,223.600 206.000 C 223.600 207.550,223.642 207.600,224.949 207.600 C 226.213 207.600,226.314 207.700,226.554 209.200 C 226.702 210.125,227.031 210.800,227.335 210.800 C 228.347 210.800,229.494 212.595,229.750 214.578 C 230.021 216.672,230.442 217.184,231.900 217.194 C 232.655 217.199,232.800 217.418,232.800 218.557 C 232.800 219.991,233.296 220.400,235.033 220.400 C 235.910 220.400,236.000 220.564,236.000 222.174 C 236.000 224.784,236.576 225.975,237.972 226.254 C 238.993 226.459,239.174 226.693,239.279 227.946 C 239.393 229.312,239.491 229.408,240.900 229.524 C 242.358 229.645,242.400 229.692,242.400 231.224 C 242.400 232.358,242.568 232.800,243.000 232.800 C 244.171 232.800,245.130 234.297,245.413 236.567 C 245.689 238.774,245.708 238.800,247.022 238.800 C 248.270 238.800,248.359 238.892,248.476 240.300 C 248.593 241.719,248.681 241.807,250.100 241.924 C 251.596 242.048,251.600 242.053,251.640 243.924 C 251.703 246.907,252.066 247.715,253.513 248.089 C 254.641 248.382,254.800 248.589,254.800 249.769 C 254.800 251.190,255.300 251.600,257.033 251.600 C 257.895 251.600,258.000 251.774,258.000 253.200 C 258.000 254.489,258.144 254.800,258.738 254.800 C 259.924 254.800,260.762 256.087,261.096 258.423 C 261.393 260.501,261.465 260.606,262.681 260.724 C 263.833 260.836,263.966 260.988,264.077 262.324 C 264.192 263.704,264.294 263.808,265.645 263.921 L 267.090 264.042 267.345 266.480 C 267.634 269.244,268.086 270.000,269.449 270.000 C 270.292 270.000,270.400 270.182,270.400 271.600 L 270.400 273.200 272.000 273.200 L 273.600 273.200 273.600 274.800 C 273.600 276.052,273.752 276.403,274.300 276.413 C 275.345 276.431,276.378 278.120,276.667 280.282 C 276.943 282.346,277.297 282.784,278.700 282.794 C 279.384 282.799,279.600 283.033,279.600 283.767 C 279.600 285.484,280.013 286.000,281.386 286.000 L 282.686 286.000 282.944 288.500 C 283.209 291.061,283.828 292.000,285.252 292.000 C 285.772 292.000,285.984 292.386,286.076 293.500 C 286.193 294.919,286.281 295.007,287.700 295.124 C 289.158 295.245,289.200 295.292,289.200 296.824 C 289.200 297.958,289.368 298.400,289.800 298.400 C 290.973 298.400,292.093 300.046,292.350 302.146 C 292.581 304.034,292.693 304.208,293.800 304.399 C 294.812 304.574,295.031 304.825,295.200 306.003 C 295.382 307.275,295.529 307.411,296.845 307.521 L 298.290 307.642 298.545 310.080 C 298.826 312.767,299.225 313.490,300.529 313.676 C 301.216 313.774,301.442 314.138,301.600 315.400 C 301.790 316.918,301.877 317.006,303.300 317.124 C 304.721 317.242,304.800 317.321,304.800 318.634 C 304.800 319.702,305.006 320.099,305.700 320.364 C 307.232 320.950,307.941 322.098,308.074 324.203 C 308.195 326.116,308.252 326.205,309.452 326.322 C 310.572 326.431,310.731 326.611,310.957 328.022 C 311.193 329.495,311.299 329.600,312.548 329.600 L 313.886 329.600 314.143 332.059 C 314.433 334.832,314.885 335.600,316.225 335.600 C 317.006 335.600,317.171 335.835,317.276 337.087 C 317.389 338.442,317.534 338.606,318.900 338.927 C 320.270 339.249,320.400 339.397,320.400 340.640 C 320.400 341.563,320.587 342.000,320.982 342.000 C 322.229 342.000,323.600 343.957,323.600 345.738 C 323.600 347.649,324.129 348.400,325.475 348.400 C 326.234 348.400,326.434 348.674,326.646 350.000 C 326.884 351.485,326.995 351.600,328.199 351.600 C 329.482 351.600,329.500 351.627,329.759 353.900 C 330.077 356.683,330.331 357.133,331.834 357.583 C 332.536 357.792,324.837 357.945,312.500 357.966 L 292.000 358.000 292.000 356.643 C 292.000 355.269,291.495 354.800,290.018 354.800 C 289.492 354.800,289.234 354.376,289.046 353.200 C 288.805 351.688,288.714 351.600,287.395 351.600 C 286.088 351.600,286.000 351.518,285.998 350.300 C 285.993 347.681,285.252 345.990,283.999 345.740 C 283.010 345.542,282.825 345.298,282.721 344.054 C 282.607 342.688,282.509 342.592,281.100 342.476 C 279.642 342.355,279.600 342.308,279.600 340.776 C 279.600 339.207,279.593 339.200,278.018 339.200 L 276.435 339.200 276.318 336.300 C 276.201 333.420,276.191 333.397,274.922 333.023 C 273.904 332.724,273.575 332.356,273.309 331.223 C 273.021 329.998,272.796 329.783,271.687 329.675 C 270.589 329.568,270.400 329.392,270.398 328.475 C 270.393 326.146,269.596 324.357,268.373 323.931 C 267.530 323.637,267.200 323.260,267.200 322.594 C 267.200 320.897,266.782 320.400,265.357 320.400 C 264.040 320.400,264.000 320.352,264.000 318.800 C 264.000 317.203,263.997 317.200,262.418 317.200 L 260.835 317.200 260.718 314.300 L 260.600 311.400 259.200 311.200 C 257.913 311.016,257.790 310.879,257.676 309.500 C 257.558 308.081,257.477 308.000,256.176 308.000 C 254.891 308.000,254.800 307.914,254.798 306.700 C 254.793 304.061,254.054 302.391,252.777 302.135 C 251.771 301.934,251.600 301.716,251.600 300.630 C 251.600 299.071,250.981 298.400,249.544 298.400 C 248.567 298.400,248.435 298.238,248.324 296.900 C 248.207 295.481,248.119 295.393,246.700 295.276 L 245.200 295.152 245.200 292.656 C 245.200 289.882,244.789 289.200,243.120 289.200 C 242.080 289.200,242.000 289.086,242.000 287.600 C 242.000 286.051,241.957 286.000,240.656 286.000 C 239.336 286.000,239.307 285.962,239.069 283.949 C 238.783 281.537,237.896 280.000,236.791 280.000 C 236.221 280.000,236.000 279.730,236.000 279.033 C 236.000 277.296,235.591 276.800,234.157 276.800 C 232.840 276.800,232.800 276.752,232.800 275.200 L 232.800 273.600 231.200 273.600 L 229.600 273.600 229.600 270.814 C 229.600 267.858,229.172 267.200,227.250 267.200 C 226.612 267.200,226.423 266.893,226.324 265.700 C 226.212 264.340,226.082 264.189,224.934 264.077 C 223.734 263.961,223.654 263.847,223.388 261.877 C 223.034 259.254,222.661 258.552,221.463 258.251 C 220.714 258.064,220.448 257.659,220.247 256.405 C 220.006 254.894,219.911 254.800,218.619 254.800 C 217.324 254.800,217.241 254.717,217.124 253.300 C 217.007 251.881,216.919 251.793,215.500 251.676 L 214.000 251.552 213.994 249.076 C 213.987 246.132,213.775 245.715,212.199 245.536 C 211.135 245.415,210.986 245.233,210.877 243.923 C 210.762 242.535,210.665 242.438,209.277 242.323 L 207.800 242.200 207.557 239.659 C 207.317 237.145,206.875 236.419,205.577 236.406 C 205.171 236.402,204.822 235.806,204.577 234.700 C 204.239 233.175,204.068 232.987,202.923 232.876 C 201.766 232.764,201.634 232.613,201.523 231.276 C 201.407 229.885,201.314 229.793,199.900 229.676 L 198.400 229.552 198.400 227.056 C 198.400 224.282,197.989 223.600,196.320 223.600 C 195.280 223.600,195.200 223.486,195.200 222.000 L 195.200 220.400 193.600 220.400 L 192.000 220.400 192.000 218.289 C 192.000 215.962,191.202 214.400,190.012 214.400 C 189.461 214.400,189.202 213.998,189.007 212.839 C 188.772 211.451,188.591 211.250,187.371 211.021 C 186.124 210.787,186.000 210.639,186.000 209.382 C 186.000 208.036,185.958 208.000,184.400 208.000 L 182.800 208.000 182.800 205.429 C 182.800 202.595,182.227 201.600,180.596 201.600 C 179.790 201.600,179.630 201.376,179.524 200.100 C 179.407 198.681,179.319 198.593,177.900 198.476 C 176.414 198.353,176.400 198.335,176.400 196.602 C 176.400 194.002,175.822 192.824,174.407 192.541 C 173.314 192.323,173.200 192.154,173.200 190.750 C 173.200 189.250,173.155 189.200,171.824 189.200 C 170.523 189.200,170.442 189.119,170.324 187.700 C 170.207 186.281,170.119 186.193,168.700 186.076 L 167.200 185.952 167.195 183.876 C 167.187 181.073,166.853 180.000,165.986 180.000 C 164.522 180.000,164.000 179.529,164.000 178.208 C 164.000 176.994,163.888 176.884,162.400 176.646 C 160.826 176.395,160.800 176.362,160.794 174.695 C 160.787 172.520,160.056 171.096,158.797 170.801 C 157.991 170.612,157.762 170.264,157.600 168.984 C 157.417 167.538,157.286 167.389,156.100 167.275 C 155.037 167.172,154.800 166.978,154.800 166.207 C 154.800 164.497,154.385 164.000,152.957 164.000 L 151.600 164.000 151.600 162.026 C 151.600 159.088,151.069 158.000,149.634 158.000 C 148.553 158.000,148.437 157.868,148.324 156.500 C 148.207 155.081,148.119 154.993,146.700 154.876 C 145.307 154.761,145.200 154.661,145.198 153.476 C 145.193 150.860,144.450 149.190,143.177 148.935 C 142.120 148.724,142.000 148.544,142.000 147.168 C 142.000 145.734,141.911 145.619,140.600 145.374 C 139.613 145.189,139.200 144.898,139.200 144.388 C 139.200 142.923,138.730 142.400,137.411 142.400 L 136.107 142.400 135.904 139.555 C 135.692 136.594,135.338 136.017,133.724 136.006 C 133.002 136.001,132.826 135.737,132.724 134.500 C 132.608 133.093,132.511 132.993,131.154 132.879 L 129.707 132.758 129.484 130.296 C 129.253 127.748,128.613 126.800,127.124 126.800 C 126.546 126.800,126.400 126.477,126.400 125.200 C 126.400 123.650,126.358 123.600,125.051 123.600 C 123.787 123.600,123.686 123.500,123.446 122.000 C 123.205 120.488,123.114 120.400,121.795 120.400 C 120.450 120.400,120.400 120.346,120.396 118.900 C 120.385 115.437,120.013 114.492,118.553 114.218 C 117.327 113.988,117.200 113.835,117.200 112.587 C 117.200 111.297,117.102 111.194,115.650 110.962 C 114.106 110.715,114.099 110.705,113.838 108.483 C 113.537 105.924,113.082 105.200,111.774 105.200 C 110.968 105.200,110.830 104.976,110.723 103.500 C 110.604 101.850,110.556 101.796,109.100 101.676 C 107.642 101.555,107.600 101.508,107.600 99.976 C 107.600 98.457,107.552 98.400,106.268 98.400 L 104.936 98.400 104.568 95.500 C 104.203 92.620,104.191 92.599,102.923 92.476 C 101.766 92.364,101.634 92.213,101.523 90.876 C 101.407 89.485,101.314 89.393,99.900 89.276 C 98.507 89.161,98.400 89.061,98.398 87.876 C 98.393 85.260,97.650 83.590,96.377 83.335 C 95.318 83.124,95.200 82.945,95.200 81.555 C 95.200 80.061,95.146 80.001,93.600 79.754 C 92.105 79.515,92.000 79.410,92.000 78.167 C 92.000 76.971,91.863 76.811,90.643 76.582 C 89.299 76.329,89.283 76.301,89.001 73.663 C 88.706 70.899,88.399 70.416,86.924 70.406 C 86.202 70.401,86.026 70.137,85.924 68.900 C 85.808 67.493,85.711 67.393,84.354 67.279 L 82.908 67.158 82.673 64.879 C 82.438 62.598,81.491 61.200,80.180 61.200 C 79.854 61.200,79.600 60.619,79.524 59.700 C 79.407 58.281,79.319 58.193,77.900 58.076 C 76.442 57.955,76.400 57.908,76.400 56.376 C 76.400 54.854,76.354 54.800,75.055 54.800 L 73.711 54.800 73.355 51.913 C 73.010 49.107,72.963 49.015,71.700 48.655 C 70.653 48.356,70.400 48.078,70.400 47.222 C 70.400 45.868,69.727 45.200,68.362 45.200 C 67.396 45.200,67.268 45.033,67.131 43.600 L 66.979 42.000 87.489 42.000 L 108.000 42.000 108.000 43.600 " stroke="none" fill="#040404" fill-rule="evenodd"></path><path id="path1" d="" stroke="none" fill="#080404" fill-rule="evenodd"></path><path id="path2" d="" stroke="none" fill="#080404" fill-rule="evenodd"></path><path id="path3" d="" stroke="none" fill="#080404" fill-rule="evenodd"></path><path id="path4" d="" stroke="none" fill="#080404" fill-rule="evenodd"></path></g></svg>